<?xml version="1.0" standalone="no"?>
<!DOCTYPE svg PUBLIC "-//W3C//DTD SVG 1.1//EN" "http://www.w3.org/Graphics/SVG/1.1/DTD/svg11.dtd" >
<svg xmlns="http://www.w3.org/2000/svg">
<metadata></metadata>
<defs>
<font id="homizio_novalight_italic" horiz-adv-x="1226" >
<font-face units-per-em="2048" ascent="1638" descent="-410" />
<missing-glyph horiz-adv-x="559" />
<glyph unicode="AE" horiz-adv-x="1585" d="M27 0l999 1434h805l-21 -97h-573l-121 -571h531l-19 -90h-530l-125 -586h604l-18 -90h-703l94 446h-501l-314 -446h-108zM510 537h461l170 800h-78z" />
<glyph unicode="ae" horiz-adv-x="1824" d="M307 150q-12 50 4 114q35 115 116.5 195t197.5 114q71 21 143 21q157 0 264 -86l35 162q52 295 -184 295q-188 0 -344 -121l-45 59q172 146 413 146q159 0 209 -74q49 -73 55 -148q174 222 435 222q144 0 221 -76t86 -215q6 -91 -19 -209l-8 -41h-758q-45 -213 27 -330 q72 -119 244 -119q173 0 330 109l26 -70q-199 -123 -393 -123q-274 0 -338 228q-128 -121 -236 -174q-108 -54 -223 -54q-104 0 -172.5 45.5t-85.5 129.5zM408 268q-20 -99 32 -154t154 -55q145 0 254 74q112 79 131 127l35 168q-117 88 -252 88q-101 0 -181 -40t-128 -107 q-33 -44 -45 -101zM1151 592h657q16 78 9.5 146t-30.5 118.5t-75.5 79.5t-126.5 29q-144 0 -260 -97q-115 -95 -174 -276z" />
<glyph unicode="OE" horiz-adv-x="1753" d="M205 702q74 347 301 549q235 207 561 207q140 0 260 -24h670l-19 -91h-571l-123 -575h531l-19 -90h-530l-125 -588h604l-19 -90h-702q-179 -25 -289 -25q-320 0 -463 205q-137 199 -67 522zM307 713q-62 -291 53 -467q118 -180 394 -180q138 0 288 30l267 1245 q-126 27 -269 27q-267 0 -471 -184q-201 -182 -262 -471z" />
<glyph unicode="oe" horiz-adv-x="1843" d="M168 230q-31 118 0 276q52 253 221 399q165 144 389 144q118 0 200.5 -46.5t125.5 -128.5q30 -61 35 -122q181 297 475 297q143 0 219.5 -75.5t85.5 -215.5q6 -92 -18 -209l-9 -41h-757q-22 -94 -15 -176t36.5 -142.5t92.5 -95.5t154 -35q173 0 362 127l21 -77 q-223 -134 -416 -134q-293 0 -336 297q-178 -297 -495 -297q-146 0 -243 68.5t-128 186.5zM262 504q-42 -196 36 -320.5t261 -124.5q278 0 416 263q44 84 65 190q45 217 -24.5 335t-257.5 118q-185 0 -316 -121q-132 -120 -180 -340zM1155 592h657q16 78 9.5 146 t-30.5 118.5t-75.5 79.5t-126.5 29q-141 0 -260 -99q-118 -103 -174 -274z" />
<glyph unicode="&#xfb01;" horiz-adv-x="854" d="M209 0l199 940h-185l19 84h184l37 178q24 113 85 193.5t154 115.5q56 21 115 21q69 0 137 -39l-53 -74q-32 29 -104 29q-189 0 -244 -254l-37 -170h510l-215 -1024h-92l199 940h-418l-201 -940h-90z" />
<glyph unicode="&#xfb02;" horiz-adv-x="1116" d="M217 0l199 940h-185l19 84h184l37 178q24 113 85.5 193.5t154.5 115.5q56 21 116 21q142 0 211.5 -52t63.5 -153l-228 -1063q-25 -98 -1.5 -149.5t106.5 -51.5q61 0 131 37l-18 -86q-75 -34 -144 -34q-226 0 -168 272l230 1075q-3 121 -205 121q-189 0 -244 -254 l-35 -170h271l-19 -84h-270l-199 -940h-92z" />
<glyph horiz-adv-x="0" />
<glyph unicode="&#xd;" horiz-adv-x="198" />
<glyph unicode=" "  horiz-adv-x="559" />
<glyph unicode="&#x09;" horiz-adv-x="559" />
<glyph unicode="&#xa0;" horiz-adv-x="559" />
<glyph unicode="!" horiz-adv-x="219" d="M43 63q6 33 34 56.5t64 23.5q34 0 53.5 -22.5t12.5 -57.5q-6 -32 -35.5 -56.5t-65.5 -24.5q-33 0 -51.5 23t-11.5 58zM152 403l219 1031h96l-229 -1031h-86z" />
<glyph unicode="&#x22;" horiz-adv-x="497" d="M297 985l94 449h86l-94 -449h-86zM545 985l94 449h86l-104 -449h-76z" />
<glyph unicode="#" horiz-adv-x="1134" d="M129 522l37 78h280l150 346h-293l35 78h291l174 410h80l-174 -410h268l174 410h82l-176 -410h274l-35 -78h-272l-150 -346h285l-35 -78h-282l-170 -399h-80l170 399h-268l-170 -399h-80l170 399h-285zM526 600h269l149 346h-268z" />
<glyph unicode="$" horiz-adv-x="784" d="M45 80l21 102q131 -98 307 -98l127 598q-94 62 -144 104q-49 41 -80 91q-25 41 -29 88.5t9 105.5q22 109 91 190.5t167 127.5q57 29 145 43l39 182h78l-39 -180q157 0 250 -43l-20 -103q-89 60 -248 60l-129 -607q82 -53 135 -96q70 -59 100 -125t9 -164 q-24 -110 -90 -188.5t-164 -122.5q-64 -28 -148 -41l-45 -213h-78l45 209q-185 0 -309 80zM346.5 1014.5q0.5 -48.5 20.5 -84.5q41 -72 155 -144l119 560q-169 -23 -250 -166q-20 -34 -32.5 -75.5t-12 -90zM451 86q111 19 185.5 84.5t96.5 167.5q29 132 -69 223 q-30 28 -97 74z" />
<glyph unicode="%" horiz-adv-x="1550" d="M279 -33l1175 1465h96l-1171 -1465h-100zM285 1092q27 128 97 217.5t177 128.5q67 24 146 24q154 0 218.5 -101t28.5 -267q-24 -118 -94.5 -205.5t-173.5 -130.5q-72 -29 -145 -29q-152 0 -220 100t-34 263zM366.5 991.5q1.5 -64.5 28.5 -106.5q50 -76 162 -76 q173 0 262 170q30 59 41 117q28 133 -16.5 208.5t-159.5 75.5q-175 0 -266 -168q-23 -43 -38 -99.5t-13.5 -121zM907 338q28 126 100 216.5t179 129.5q70 25 141 25q154 0 219 -101.5t31 -267.5q-26 -119 -96.5 -206t-173.5 -130q-73 -29 -146 -29q-152 0 -220 100t-34 263z M991 237q2 -64 29 -106q50 -76 162 -76q174 0 262 168q28 54 43 119q28 134 -17 209.5t-161 75.5q-174 0 -267 -170q-23 -45 -38 -100.5t-13 -119.5z" />
<glyph unicode="&#x26;" horiz-adv-x="1341" d="M127 360q58 273 424 424q-173 262 -37 473q77 121 223 175q76 26 148 26q134 0 203.5 -76t41.5 -213q-14 -66 -45 -122t-69 -96.5t-94 -77.5t-106 -61.5t-118 -53.5q104 -141 349 -434q162 183 225 434h96q-65 -269 -272 -498q138 -170 217 -262l-142 2l-153 188 q-248 -213 -524 -213q-210 0 -308 109q-97 107 -59 276zM227 367q-23 -110 18.5 -181t129.5 -104q67 -23 143 -23q227 0 453 191q-17 20 -79 95.5t-84.5 103.5t-67 84t-77 99t-63.5 87q-327 -132 -373 -352zM554 1032q13 -91 93 -209q195 79 279 154q82 73 104 180 q22 97 -27 157t-145 60q-89 0 -155 -42.5t-107 -110.5q-55 -98 -42 -189z" />
<glyph unicode="'" horiz-adv-x="231" d="M287 985l96 449h86l-96 -449h-86z" />
<glyph unicode="(" horiz-adv-x="460" d="M145 545q114 538 496 889h98q-388 -358 -499 -887q-108 -499 122 -873h-98q-230 357 -119 871z" />
<glyph unicode=")" horiz-adv-x="460" d="M-39 -326q386 374 494 873q111 528 -125 887h98q233 -348 119 -889q-110 -515 -490 -871h-96z" />
<glyph unicode="*" horiz-adv-x="739" d="M262 1126l45 86l266 -102l70 324h78l-70 -324l295 102l8 -86l-309 -75l143 -267l-88 -51l-114 277l-238 -277l-61 51l256 267z" />
<glyph unicode="+" horiz-adv-x="915" d="M123 555l16 84h414l86 412h86l-88 -412h410l-19 -84h-410l-88 -412h-84l89 412h-412z" />
<glyph unicode="," horiz-adv-x="282" d="M-33 -248l250 475h102l-276 -475h-76z" />
<glyph unicode="-" horiz-adv-x="706" d="M197 555l20 90h547l-21 -90h-546z" />
<glyph unicode="." horiz-adv-x="276" d="M72 63q6 33 34 56.5t64 23.5q34 0 52 -22.5t11 -57.5q-6 -32 -34 -56.5t-64 -24.5q-33 0 -51.5 23t-11.5 58z" />
<glyph unicode="/" horiz-adv-x="796" d="M-45 -238l1046 1672h97l-1053 -1672h-90z" />
<glyph unicode="0" horiz-adv-x="985" d="M170.5 409q1.5 72 10.5 139t24 138q84 389 239 578q159 194 377 194q414 0 258 -735q-77 -364 -235 -557q-154 -191 -369 -191q-71 0 -125.5 23.5t-88.5 63t-55.5 95.5t-29 118t-6 134zM268 426q-7 -240 101 -324q55 -43 137 -43q81 0 151 43q144 86 240 330 q43 104 82 277q141 665 -182 665q-164 0 -293 -170q-131 -173 -201 -506q-32 -161 -35 -272z" />
<glyph unicode="1" horiz-adv-x="522" d="M262 1239l21 92l475 154l-316 -1485h-92l289 1364z" />
<glyph unicode="2" horiz-adv-x="911" d="M53 0l21 98l479 416q252 218 344 330q91 111 117 235q30 145 -33 220t-205 75q-188 0 -389 -149l23 108q189 125 397 125q172 0 256.5 -94.5t48.5 -269.5q-27 -127 -89 -215t-181 -203q-56 -56 -240 -217l-430 -371v-4h717l-17 -84h-819z" />
<glyph unicode="3" horiz-adv-x="854" d="M39 51l22 105q138 -97 287 -97q132 0 230.5 51.5t154.5 139.5q38 60 53 129q19 87 -1 151t-72.5 101t-124.5 54t-166 17h-111l19 84h98q190 0 308.5 79.5t150.5 232.5q29 135 -32 205.5t-196 70.5q-134 0 -303 -94l21 98q183 80 313 80q124 0 202 -50t99 -148 q13 -66 -2 -138q-61 -290 -358 -370v-4q139 -16 213.5 -109.5t40.5 -245.5q-41 -186 -195 -303q-152 -115 -360 -115q-163 0 -291 76z" />
<glyph unicode="4" horiz-adv-x="980" d="M90 406l16 77l863 951h92l-201 -945h191l-17 -83h-190l-86 -406h-92l86 406h-662zM215 489h553l145 680q18 85 31 129h-4q-39 -52 -70 -86z" />
<glyph unicode="5" horiz-adv-x="821" d="M57 29l23 106q119 -76 258 -76q136 0 236 56.5t157 152.5q34 55 55 146q74 350 -323 350q-163 0 -219 -35l149 705h645l-16 -84h-553l-109 -510q114 8 154 8q340 0 381 -244q16 -90 -9.5 -187.5t-70.5 -172.5q-100 -169 -293 -236q-90 -33 -211 -33q-158 0 -254 54z" />
<glyph unicode="6" horiz-adv-x="944" d="M156 348q-3 150 39 321.5t102 301.5q139 309 375 428q118 59 250 59q113 0 200 -35l-20 -98q-88 49 -201 49q-108 0 -203 -53q-192 -105 -317 -379q-57 -122 -94 -293h4q155 248 411 248q116 0 193.5 -58.5t103.5 -158.5t0 -225q-34 -157 -125.5 -273.5t-224.5 -171.5 q-80 -35 -180 -35q-157 0 -233.5 99.5t-79.5 273.5zM250 313q16 -156 119 -221q50 -33 127 -33q139 0 254 107q113 107 147 270q19 78 12 147t-34 120t-81 80.5t-130 29.5q-138 0 -258 -108q-177 -158 -156 -392z" />
<glyph unicode="7" horiz-adv-x="886" d="M199 0l841 1350h-745l18 84h865l-7 -25l-872 -1409h-100z" />
<glyph unicode="8" horiz-adv-x="950" d="M123 190q-15 66 4 148q58 269 408 407v5q-244 132 -195 360q25 116 105.5 199t195.5 123q74 26 164 26q116 0 191.5 -50.5t95.5 -143.5q12 -63 -2 -131q-53 -244 -369 -379l-2 -4q310 -123 252 -398q-27 -132 -114.5 -221.5t-217.5 -128.5q-89 -27 -199 -27 q-128 0 -211 55.5t-106 159.5zM223 342q-21 -99 17.5 -165.5t117.5 -96.5q56 -21 129 -21q116 0 202 46t136 124q30 47 46 109t6 123q-18 107 -129 176q-60 37 -136 63q-181 -68 -272 -149q-88 -79 -117 -209zM438 1124q-46 -213 203 -327q304 111 350 325 q26 119 -35.5 185.5t-183.5 66.5q-95 0 -171 -42.5t-120 -108.5q-32 -50 -43 -99z" />
<glyph unicode="9" horiz-adv-x="944" d="M121 12l20 101q102 -54 201 -54q227 0 383 181q160 187 233 536h-4q-147 -231 -401 -231q-118 0 -196.5 57.5t-105 157t0.5 225.5q32 156 124 270t228 168q87 35 180 35q154 0 229.5 -97.5t80.5 -268.5q3 -113 -33 -283q-81 -395 -275 -616q-193 -218 -464 -218 q-111 0 -201 37zM352 1004q-35 -164 28 -269.5t214 -105.5q135 0 248 98q115 95 143 229q29 128 0.5 234.5t-108.5 152.5q-54 31 -123 31q-141 0 -254 -106q-114 -103 -148 -264z" />
<glyph unicode=":" horiz-adv-x="251" d="M59 63q6 33 34.5 56.5t64.5 23.5q34 0 52 -22.5t11 -57.5q-6 -32 -34 -56.5t-64 -24.5q-33 0 -52 23t-12 58zM252 963q6 32 33 55.5t63 23.5q33 0 53 -22.5t13 -56.5q-6 -32 -35.5 -57t-65.5 -25q-33 0 -50.5 23.5t-10.5 58.5z" />
<glyph unicode=";" horiz-adv-x="292" d="M-41 -248l252 475h100l-274 -475h-78zM326 963q6 33 33 56t63 23q33 0 51.5 -22.5t11.5 -56.5q-6 -32 -34.5 -57t-63.5 -25q-34 0 -51.5 23.5t-9.5 58.5z" />
<glyph unicode="&#x3c;" horiz-adv-x="909" d="M125 580l2 18l934 467l-21 -94l-757 -379l-2 -4l606 -334l-21 -96z" />
<glyph unicode="=" horiz-adv-x="999" d="M156 362l18 84h907l-18 -84h-907zM240 750l16 84h907l-16 -84h-907z" />
<glyph unicode="&#x3e;" horiz-adv-x="907" d="M109 158l18 96l750 334l2 4l-598 379l20 94l733 -467l-4 -18z" />
<glyph unicode="?" horiz-adv-x="753" d="M283 1286q141 166 413 172q112 0 187 -47t96 -135q14 -57 0 -124t-41 -114q-36 -65 -86.5 -115.5t-128.5 -113.5l-105 -84q-54 -44 -82 -81.5t-42 -98.5q-9 -47 -9 -84q0 -48 2 -64h-81q-11 56 0.5 122.5t35.5 109.5q34 63 96.5 118.5t136 111t113.5 102.5q73 84 91 172 q24 111 -32 173t-169 62q-99 0 -185 -34.5t-141 -90.5zM291 63q6 33 33 56.5t63 23.5q34 0 53.5 -22.5t12.5 -57.5q-6 -32 -35.5 -56.5t-65.5 -24.5q-33 0 -50.5 23t-10.5 58z" />
<glyph unicode="@" horiz-adv-x="1699" d="M176.5 288.5q-25.5 145.5 9.5 327.5q76 360 363 601q283 241 641 241q174 0 305.5 -54t212.5 -153q78 -96 105 -224t-5 -298q-47 -233 -188 -387q-138 -154 -301 -154q-224 0 -189 238h-4q-142 -238 -344 -238q-97 0 -156.5 50.5t-72.5 132.5t6 186q23 111 73.5 209 t119.5 168q149 153 333 153q115 0 168 -83q16 -26 19 -50h4q25 86 37 119h88l-176 -584q-46 -217 106 -217q125 0 232 127q104 123 147 320q50 227 -23.5 384t-242.5 224q-118 47 -281 47q-317 0 -565 -219t-315 -539q-34 -161 -13.5 -295.5t92.5 -228.5q151 -196 478 -196 q252 0 444 88l37 -60q-266 -112 -508 -112q-179 0 -313.5 59t-216.5 166q-81 106 -106.5 251.5zM645.5 455q2.5 -53 18 -93.5t53.5 -65t94 -24.5q136 0 248 142q107 133 153 352q24 113 -12.5 175.5t-134.5 62.5q-148 0 -256 -121q-110 -118 -152 -318q-14 -57 -11.5 -110z " />
<glyph unicode="A" d="M29 0l843 1434h95l231 -1434h-111l-69 446h-623l-258 -446h-108zM451 537h553l-103 663q-3 20 -8 109h-4q-6 -12 -58 -107z" />
<glyph unicode="B" horiz-adv-x="946" d="M80 0l305 1434h377q161 0 247 -86q62 -62 62 -161q0 -39 -10 -85q-27 -127 -115 -218t-213 -128v-4q139 -12 209 -102q49 -62 49 -154q0 -40 -10 -86q-29 -137 -116.5 -235.5t-215.5 -143.5q-88 -31 -184 -31h-385zM199 90h266q173 0 278 80.5t136 230.5q9 41 9 76 q0 93 -62 147q-85 74 -287 74h-211zM346 788h201q121 0 210.5 46.5t143.5 126.5q35 52 51 124q9 40 9 74q0 184 -259 184h-237z" />
<glyph unicode="C" horiz-adv-x="1191" d="M203 702q71 344 301 549q231 207 551 207q222 0 362 -127l-67 -82q-116 119 -332 119q-247 0 -449 -182q-204 -188 -264 -473q-22 -104 -22 -193q0 -165 75 -278q116 -176 371 -176q208 0 373 106l31 -78q-187 -119 -420 -119q-152 0 -264.5 53.5t-178.5 149.5 q-91 132 -91 319q0 95 24 205z" />
<glyph unicode="D" horiz-adv-x="1218" d="M80 0l305 1434h358q538 0 598 -396q6 -45 7 -94q0 -96 -25 -207q-35 -164 -115.5 -299t-195.5 -231q-249 -207 -594 -207h-338zM199 90h225q480 0 694 367q69 123 103 276q22 102 22 187q0 423 -534 423h-244z" />
<glyph unicode="E" horiz-adv-x="784" d="M80 0l303 1434h670l-19 -91h-571l-121 -575h528l-18 -90h-530l-125 -588h604l-19 -90h-702z" />
<glyph unicode="F" horiz-adv-x="747" d="M78 0l305 1434h670l-21 -91h-569l-125 -585h530l-20 -90h-531l-141 -668h-98z" />
<glyph unicode="G" horiz-adv-x="1222" d="M203 702q71 344 301 549q231 207 551 207q222 0 362 -127l-67 -82q-144 120 -325 120q-39 0 -79 -5q-217 -27 -397 -203q-188 -185 -244 -448q-22 -104 -22 -193q0 -164 75 -278q116 -176 371 -176q211 0 371 106l96 451h-338l19 90h438l-123 -576h2 q-117 -79 -226 -120.5t-255 -41.5q-152 0 -264.5 53.5t-178.5 149.5q-91 132 -91 319q0 95 24 205z" />
<glyph unicode="H" horiz-adv-x="1173" d="M78 0l305 1434h98l-139 -656h821l140 656h98l-305 -1434h-99l148 688h-821l-148 -688h-98z" />
<glyph unicode="I" horiz-adv-x="258" d="M78 0l303 1434h98l-303 -1434h-98z" />
<glyph unicode="J" horiz-adv-x="548" d="M-45 -215l55 88q28 -14 80 -14q139 0 221 104q85 108 131 326l242 1145h98l-241 -1147q-111 -518 -471 -518q-56 0 -115 16z" />
<glyph unicode="K" horiz-adv-x="995" d="M76 0l305 1434h98l-143 -676h4q17 23 33 35l717 641h129l-777 -695l510 -739h-139l-465 686q-13 20 -16 33h-4l-154 -719h-98z" />
<glyph unicode="L" horiz-adv-x="749" d="M76 0l305 1434h98l-284 -1344h573l-18 -90h-674z" />
<glyph unicode="M" horiz-adv-x="1488" d="M76 0l305 1434h90l291 -1155q5 -23 20 -119h6l17 33q4 4 14 24q4 7 9.5 17t15 25.5t16.5 27.5l770 1147h88l-305 -1434h-94l258 1212l-813 -1212h-33l-301 1233l-262 -1233h-92z" />
<glyph unicode="N" horiz-adv-x="1234" d="M76 0l303 1434h76l604 -1149q33 -68 43 -92h4q10 70 20 120l238 1121h98l-303 -1434h-69l-609 1159q-6 10 -30 70l-11 20h-4q-2 -11 -5 -32t-5 -31l-252 -1186h-98z" />
<glyph unicode="O" horiz-adv-x="1445" d="M203 702q71 344 301 549q231 207 551 207q145 0 253 -52t173 -146q66 -96 84 -230q6 -47 6 -98q0 -92 -21 -193q-74 -352 -303 -559q-226 -205 -534 -205q-152 0 -264.5 53.5t-178.5 149.5q-91 132 -91 319q0 95 24 205zM305 713q-22 -104 -22 -193q0 -165 75 -278 q116 -176 371 -176q266 0 459 174t258 483q22 106 22 195q0 165 -75 278q-55 82 -150.5 127t-224.5 45q-247 0 -449 -182q-204 -188 -264 -473z" />
<glyph unicode="P" horiz-adv-x="882" d="M74 0l305 1434h346q216 0 314 -98q68 -68 69 -188q0 -53 -14 -116q-33 -155 -131 -263t-244 -159q-100 -35 -217 -35h-207l-123 -575h-98zM313 666h205q197 0 316 92t155 262q11 50 11 92q0 231 -314 231h-227z" />
<glyph unicode="Q" horiz-adv-x="1421" d="M203 702q71 344 301 549q231 207 551 207q145 0 253 -52t173 -146q66 -97 84 -230q6 -48 6 -98q0 -91 -21 -193q-46 -216 -154 -382.5t-266 -264.5l156 -145l-65 -58l-172 158q-153 -72 -336 -72q-152 0 -264.5 53.5t-178.5 149.5q-91 132 -91 319q0 95 24 205zM305 713 q-22 -104 -22 -193q0 -164 75 -278q116 -176 371 -176q139 0 252 45l-90 84l65 59l111 -102q145 82 241 228.5t138 342.5q22 106 22 195q0 166 -75 278q-55 82 -150.5 127t-224.5 45q-247 0 -449 -182q-204 -188 -264 -473z" />
<glyph unicode="R" horiz-adv-x="966" d="M74 0l303 1434h397q180 0 274 -97q67 -69 67 -180q0 -45 -11 -96q-25 -119 -95.5 -206t-174.5 -138q-69 -34 -152 -49v-4l238 -664h-113l-225 639h-275l-135 -639h-98zM326 729h247q248 0 371 189q41 64 55 133q9 43 9 80q0 87 -52 139q-74 72 -231 73h-268z" />
<glyph unicode="S" horiz-adv-x="849" d="M55 92l78 74q104 -98 250 -98q164 0 266 66.5t129 195.5q10 42 10 77q0 11 -1 20q-4 42 -29 79q-21 33 -78 80q-20 17 -139 98q-191 126 -232 213q-25 50 -25 108v11q2 64 21 119t49 100q94 138 267 195q89 28 184 28q182 -9 291 -115l-78 -73q-104 98 -246 98 q-111 0 -195.5 -43t-132.5 -115q-27 -40 -43 -94q-13 -44 -13 -85q0 -10 1 -21q2 -33 31 -78q23 -35 78 -78q56 -43 139 -100q89 -59 143 -107q50 -45 80 -96q32 -54 32 -124q0 -37 -9 -79q-27 -132 -113 -218.5t-217 -125.5q-91 -27 -207 -27q-182 9 -291 115z" />
<glyph unicode="T" horiz-adv-x="944" d="M295 1343l18 91h926l-18 -91h-414l-285 -1343h-98l285 1343h-414z" />
<glyph unicode="U" horiz-adv-x="1124" d="M182 551l187 883h98l-184 -869q-23 -104 -23 -187q0 -312 324 -312q390 0 495 485l187 883h98l-182 -861q-126 -598 -637 -598q-388 0 -388 367q0 93 25 209z" />
<glyph unicode="V" horiz-adv-x="1204" d="M330 1434h110l170 -1155q9 -60 9 -110q0 -14 -1 -26h5q24 61 69 138l686 1153h107l-860 -1434h-74z" />
<glyph unicode="W" horiz-adv-x="1818" d="M348 1434h111l84 -1149q4 -45 4 -127h4q5 19 14 38t25.5 49t21.5 40l598 1149h50l81 -1149q5 -61 5 -104v-23h4l12 30q12 24 16 33l594 1213h107l-723 -1434h-82l-90 1079q-3 37 -3 67q0 40 5 68h-4q-12 -40 -62 -133l-567 -1081h-84z" />
<glyph unicode="X" horiz-adv-x="1124" d="M51 0l606 723l-274 711h119l207 -539q4 -11 30 -96h4q92 119 266.5 334.5t241.5 300.5h115l-580 -709l285 -725h-119l-215 547q-15 37 -30 100h-7q-47 -66 -77 -100l-453 -547h-119z" />
<glyph unicode="Y" horiz-adv-x="1040" d="M326 1434h110l189 -691q16 -64 22 -106h4q2 2 12 19t17 26q126 179 539 752h106l-651 -889l-115 -545h-98l114 543z" />
<glyph unicode="Z" horiz-adv-x="1062" d="M20 0l7 31l1147 1312h-799l18 91h953l-5 -27l-1153 -1317h859l-19 -90h-1008z" />
<glyph unicode="[" horiz-adv-x="389" d="M0 -326l375 1760h317l-18 -84h-225l-338 -1592h225l-19 -84h-317z" />
<glyph unicode="\" horiz-adv-x="796" d="M307 1434h99l335 -1672h-92z" />
<glyph unicode="]" horiz-adv-x="391" d="M-68 -326l19 84h223l338 1592h-223l16 84h320l-375 -1760h-318z" />
<glyph unicode="^" horiz-adv-x="860" d="M174 702l545 756h41l225 -756h-96l-176 613h-4l-439 -613h-96z" />
<glyph unicode="_" horiz-adv-x="991" d="M14 -268l19 90h850l-19 -90h-850z" />
<glyph unicode="`" horiz-adv-x="358" d="M332 1516h102l164 -328h-88z" />
<glyph unicode="a" horiz-adv-x="874" d="M100 150q-6 25 -6 52q0 31 8 62q24 104 90.5 176t160.5 108.5t218 45.5q28 2 58 2q99 0 211 -21l18 95q9 53 9 97q0 198 -193 198q-186 0 -342 -121l-45 59q172 146 413 146q164 0 226 -99q38 -61 39 -155q0 -58 -15 -129l-141 -666h-92l35 162q-43 -68 -162 -129 q-118 -58 -234 -58q-104 0 -171.5 45.5t-84.5 129.5zM201 268q-6 -28 -6 -52q0 -62 37 -102q51 -55 153 -55q145 0 254 74q112 79 131 127l51 240q-81 16 -175 16q-3 0 -5 1q-91 0 -174 -17q-225 -46 -266 -232z" />
<glyph unicode="b" horiz-adv-x="978" d="M49 0l322 1516h92l-150 -703q53 74 125 131q127 98 269 103h14q92 0 162 -38q75 -41 121 -112q48 -73 62 -171q6 -38 5 -79q0 -65 -14 -137q-39 -181 -136.5 -311t-246.5 -189q-85 -35 -195 -35q-232 0 -297 207h-4l-37 -182h-92zM197 266q26 -47 51 -80t61 -64t85.5 -47 t111.5 -16q164 0 282 115q124 118 170 334q13 61 13 116q0 74 -23 138q-41 112 -135 166q-57 35 -135 35q-160 -10 -287 -127q-51 -47 -92 -91z" />
<glyph unicode="c" horiz-adv-x="880" d="M158 506q39 185 141 316t260 190q98 37 209 37q168 0 262 -82l-63 -72q-76 70 -219 70q-183 0 -314 -121q-132 -120 -180 -340q-15 -69 -15 -128q0 -110 51 -192q78 -124 261 -125q146 0 256 76l29 -72q-141 -88 -306 -88q-222 0 -323 147q-67 97 -67 233q0 70 18 151z " />
<glyph unicode="d" horiz-adv-x="978" d="M102 297q-4 30 -4 62q0 71 19 151q24 113 82 214t135 173q162 150 348 150h12q143 -5 226 -103q50 -57 67 -131l152 703h92l-324 -1516h-92l39 182h-4q-154 -207 -383 -207q-109 0 -189 40.5t-122 112t-54 169.5zM198 334q6 -82 35 -143t91.5 -96.5t150.5 -35.5 q169 0 313 129q58 50 84 78l103 479q-28 51 -50 82.5t-55.5 64t-78.5 50t-103 21.5q-153 0 -293 -132q-139 -129 -182 -323q-17 -71 -17 -136z" />
<glyph unicode="e" horiz-adv-x="950" d="M140 347q2 81 20 171q45 221 207 377q162 154 364 154q144 0 221 -76t86 -215q1 -19 1 -38q0 -79 -19 -171l-8 -41h-758q-17 -82 -17 -150q0 -108 44 -180q72 -119 241 -119q175 0 332 109l27 -70q-199 -123 -396 -123q-87 0 -153.5 28t-107 77.5t-63.5 117.5 q-21 63 -21 136v13zM274 592h660q11 55 11 106q1 20 -1 40q-6 68 -30.5 118.5t-76 79.5t-126.5 29q-144 0 -260 -97q-119 -98 -177 -276z" />
<glyph unicode="f" horiz-adv-x="634" d="M199 0l198 940h-184l18 84h185l39 178q24 113 84 194t153 115q56 21 117 21q69 0 137 -39l-53 -74q-32 29 -107 29q-95 0 -154 -63t-87 -191l-37 -170h270l-16 -84h-273l-198 -940h-92z" />
<glyph unicode="g" horiz-adv-x="995" d="M23 -403l75 73q85 -67 232 -67q426 0 520 448l29 133q-170 -209 -418 -209q-103 0 -177 40.5t-111 111t-47 165.5q-2 25 -2 51q0 72 19 151q24 119 80 222t133 177q160 156 373 156q226 0 293 -187l35 162h92l-203 -948q-22 -104 -55 -186.5t-85 -153.5t-120.5 -117.5 t-163.5 -73t-213 -26.5q-142 0 -286 78zM225 332q6 -80 32.5 -141t86 -96.5t145.5 -35.5q233 0 408 217l104 490q-102 199 -286 199q-170 0 -301 -127q-130 -130 -174 -336q-16 -69 -16 -133q0 -19 1 -37z" />
<glyph unicode="h" horiz-adv-x="878" d="M72 0l321 1516h92l-143 -676q170 209 399 209q171 0 233 -108q37 -64 37 -160q0 -66 -18 -146l-135 -635h-90l129 614q18 82 18 144q-1 73 -25 120q-44 87 -192 87q-194 0 -383 -244l-151 -721h-92z" />
<glyph unicode="i" horiz-adv-x="202" d="M55 0l217 1024h93l-218 -1024h-92zM313 1360q6 30 32 52t58 22q31 0 51 -20q14 -15 15 -37q0 -8 -2 -17q-6 -30 -33.5 -54t-60.5 -24q-31 0 -49 22q-13 16 -13 38q0 9 2 18z" />
<glyph unicode="j" horiz-adv-x="579" d="M-121 -428l47 78q71 -47 146 -47q260 0 346 409l215 1012h92l-211 -995q-108 -510 -471 -510q-96 0 -164 53zM674 1360q6 30 33 52t59 22t50 -20q13 -15 13 -36q0 -9 -2 -18q-6 -30 -33.5 -54t-60.5 -24q-31 0 -49 22q-12 17 -12 38q0 9 2 18z" />
<glyph unicode="k" horiz-adv-x="790" d="M72 0l321 1516h92l-209 -977h5l569 485h119l-592 -496l414 -528h-134l-383 506h-4l-106 -506h-92z" />
<glyph unicode="l" horiz-adv-x="239" d="M70 0l321 1516h92l-321 -1516h-92z" />
<glyph unicode="m" horiz-adv-x="1513" d="M72 0l217 1024h92l-37 -170q82 97 176 147q91 48 182 48q128 0 205 -105q27 -42 37 -84q80 93 174 144q83 45 180 45q124 0 197 -95q58 -76 57 -186q0 -52 -12 -111l-137 -657h-92l131 623q16 76 16 134q0 208 -203 208q-167 -15 -299 -162q1 -15 1 -31q0 -53 -13 -115 l-137 -657h-92l131 623q16 76 16 134q0 208 -203 208q-190 -15 -335 -207l-160 -758h-92z" />
<glyph unicode="n" horiz-adv-x="923" d="M72 0l217 1024h92l-37 -170q82 97 176 147q91 48 182 48q124 0 197 -95q58 -76 57 -186q0 -52 -12 -111l-137 -657h-92l131 623q16 76 16 134q0 208 -203 208q-190 -15 -335 -207l-160 -758h-92z" />
<glyph unicode="o" horiz-adv-x="1071" d="M158 506q39 185 141 316t260 190q98 37 209 37q164 0 260 -81.5t115 -232.5q4 -34 4 -70q0 -79 -20 -161q-29 -120 -78 -209q-114 -203 -308 -281q-95 -39 -211 -39q-222 0 -323 147q-67 97 -67 233q0 70 18 151zM254 504q-15 -69 -15 -128q0 -110 51 -192 q78 -124 261 -125q278 0 416 263q44 84 65 190q18 85 18 154q0 109 -44 181q-70 118 -258 118q-183 0 -314 -121q-132 -120 -180 -340z" />
<glyph unicode="p" horiz-adv-x="978" d="M-51 -473l317 1497h92l-39 -180h5q154 207 385 207q109 0 189 -40.5t121 -112t53 -169.5q4 -30 4 -62q0 -71 -19 -151q-48 -228 -217 -387q-164 -152 -349 -152h-12q-145 6 -225 103q-51 57 -68 133l-145 -686h-92zM201 281q29 -52 49.5 -82.5t54 -64.5t78 -51.5 t102.5 -21.5q151 0 293 134q143 133 185 323q17 70 17 134q0 20 -2 40q-7 82 -36.5 143t-92.5 96.5t-151 35.5q-111 0 -223 -64q-77 -44 -174 -145z" />
<glyph unicode="q" horiz-adv-x="978" d="M158 516q39 182 136.5 311.5t246.5 186.5q90 37 194 37q230 0 295 -207h4l39 180h92l-317 -1497h-92l145 686q-57 -79 -125 -133q-127 -98 -268 -103h-13q-92 0 -163 39q-77 42 -123 113q-66 104 -66 244q0 67 15 143zM256 518q-13 -61 -13 -116q0 -73 23 -138 q41 -112 135 -166q61 -37 136 -37q88 6 155 39t129 90q67 62 94 91l103 477q-26 47 -50.5 80t-61 65t-86 48t-111.5 16q-162 0 -283 -117q-125 -119 -170 -332z" />
<glyph unicode="r" horiz-adv-x="552" d="M72 0l217 1024h90l-35 -162q84 96 162 139q79 43 168 43q59 0 125 -28l-47 -88q-42 33 -111 33q-175 0 -319 -203l-160 -758h-90z" />
<glyph unicode="s" horiz-adv-x="737" d="M63 76l58 80q60 -66 176 -90q35 -7 57 -7q239 0 283 197q4 19 4 35q0 35 -17 61q-25 38 -75 70q-25 16 -101 55.5t-102 57.5q-58 43 -82 97q-14 32 -15 75q0 29 7 63q21 96 89.5 161.5t166.5 96.5q65 21 133 21q133 0 246 -76l-53 -82q-103 74 -220 74q-156 0 -233 -113 q-28 -39 -37 -93q-2 -14 -2 -27q0 -39 19 -75q22 -29 53 -49q47 -30 98 -55q75 -38 121 -68q63 -41 89 -93q15 -30 15 -71q0 -30 -8 -65q-21 -98 -89 -163.5t-167 -96.5q-67 -21 -147 -21q-151 0 -267 101z" />
<glyph unicode="t" horiz-adv-x="569" d="M211 940l18 84h185l61 297h92l-61 -297h268l-16 -84h-271l-143 -676q-13 -51 -13 -89q-1 -37 11 -61q24 -52 107 -51q58 0 100 23l10 -72q-75 -34 -141 -34q-180 0 -180 172q0 44 12 100l145 688h-184z" />
<glyph unicode="u" horiz-adv-x="921" d="M154 432l127 592h92l-121 -569q-21 -105 -21 -181q1 -110 56 -162.5t168 -52.5q189 0 364 220l158 745h92l-217 -1024h-92l39 186q-186 -213 -363 -213q-198 0 -264 115q-39 67 -38 172q0 76 20 172z" />
<glyph unicode="v" horiz-adv-x="937" d="M244 1024h102l131 -815q8 -47 8 -107h4q13 35 52 103l489 819h100l-624 -1024h-84z" />
<glyph unicode="w" horiz-adv-x="1400" d="M262 1024h103l63 -817q1 -9 1 -22q0 -25 -5 -64h8q4 13 9.5 26t14.5 32.5t13 27.5l434 817h64l57 -817q1 -21 1 -28.5t-2 -28t-3 -29.5h8q4 23 35 86l418 817h94l-535 -1024h-86l-59 772q-2 14 -2 31q0 24 4 55h-4q-12 -34 -39 -84l-414 -774h-86z" />
<glyph unicode="x" horiz-adv-x="903" d="M55 0l449 500l-225 524h106l152 -367q12 -30 32 -88h4q74 90 215 253.5t173 201.5h106l-459 -522l230 -502h-117l-180 432h-4l-48 -57q-4 -5 -11 -13.5t-11 -13.5l-299 -348h-113z" />
<glyph unicode="y" horiz-adv-x="948" d="M-37 -467l45 84q6 -6 55 -6q122 0 230 170l143 227l-172 1016h103l133 -834l8 -77q91 152 274.5 455t274.5 456h100l-762 -1233q-91 -147 -166 -205q-88 -67 -190 -67q-44 0 -76 14z" />
<glyph unicode="z" horiz-adv-x="894" d="M29 0l8 35l870 905h-631l19 84h786l-4 -25l-880 -915h659l-16 -84h-811z" />
<glyph unicode="{" horiz-adv-x="448" d="M119 522l12 64q162 21 209 243l66 314q31 141 104.5 213t214.5 78l-18 -84q-52 -2 -89 -20.5t-60 -53.5t-36.5 -71t-25.5 -91l-62 -293q-46 -221 -203 -266v-4q136 -47 86 -281l-59 -276q-11 -55 -14 -92t8.5 -75.5t44.5 -53.5q27 -12 72 -15l-19 -84q-131 5 -178 74.5 t-16 216.5l63 297q53 239 -100 260z" />
<glyph unicode="|" horiz-adv-x="241" d="M-31 -481l434 2048h97l-437 -2048h-94z" />
<glyph unicode="}" horiz-adv-x="446" d="M-41 -326l18 84q41 2 73 15t53.5 33t38 51.5t26 62.5t18.5 74l60 276q50 235 205 281v4q-135 47 -89 266l62 293q14 63 14 113q0 64 -29 92t-94 31l19 84q94 -5 146 -42t59 -118q3 -62 -13 -131l-65 -314q-47 -222 102 -243l-12 -64q-158 -21 -211 -260l-64 -297 q-29 -138 -102.5 -211t-214.5 -80z" />
<glyph unicode="~" horiz-adv-x="954" d="M158 479q28 107 100.5 174.5t183.5 67.5q96 0 179 -80q8 -7 22 -21.5t21.5 -21t20 -16t24.5 -15.5q31 -16 77 -16q134 0 187 160h76q-30 -108 -102 -175t-183 -67q-92 0 -182 84t-158 84q-141 0 -188 -158h-78z" />
<glyph unicode="&#xa1;" horiz-adv-x="212" d="M-33 -408l219 1031h97l-220 -1031h-96zM227 961q6 32 34.5 56.5t64.5 24.5q33 0 51.5 -23t11.5 -58q-8 -34 -34.5 -57t-61.5 -23q-34 0 -53.5 22.5t-12.5 57.5z" />
<glyph unicode="&#xa2;" horiz-adv-x="813" d="M164 657q35 164 126 288.5t224 195.5q90 47 191 65l40 199h93l-41 -193q117 0 239 -61l-47 -90q-91 64 -211 67l-190 -903q128 9 237 80l9 -86q-136 -66 -265 -78l-43 -198h-92l43 198q-189 15 -274 157t-39 359zM248 519.5q1 -90.5 35 -154.5q61 -119 213 -140l190 897 q-125 -22 -217 -99.5t-150 -191.5q-32 -65 -52 -143t-19 -168.5z" />
<glyph unicode="&#xa3;" horiz-adv-x="903" d="M27 0l8 41q98 37 172.5 111t120.5 172q31 75 41 127l45 211h-228l19 90h227l64 290q30 137 105.5 237.5t189.5 147.5q76 31 153 31q116 0 203 -41l-47 -88q-77 45 -176 45q-124 0 -215 -88q-87 -84 -125 -256l-60 -278h307l-18 -90h-307l-37 -177q-49 -227 -221 -366 q-49 -40 -115 -84l80 49h698l-16 -84h-868z" />
<glyph unicode="&#xa4;" horiz-adv-x="995" d="M137 354l164 131q-34 66 -40 136t12.5 132t51.5 116t78 96l-108 133l74 61l104 -135q131 84 260 84q134 0 221 -84l166 135l47 -61l-166 -133q60 -100 33 -240q-27 -132 -135 -240l111 -131l-72 -61l-109 135q-127 -86 -260 -86q-140 0 -223 86l-162 -135zM352 727 q-21 -96 17 -168.5t110 -107.5q52 -25 109 -25q124 0 229 90q108 91 133 211q21 97 -16.5 168t-110.5 106q-54 23 -106 23q-125 0 -232 -88q-108 -90 -133 -209z" />
<glyph unicode="&#xa5;" horiz-adv-x="958" d="M129 332l18 84h373l51 246h-370l16 83h342l-229 689h100l186 -572q3 -12 10 -32t11 -35t6 -29h4q34 63 66 100l432 568h94l-528 -689h344l-19 -83h-372l-52 -246h373l-18 -84h-373l-70 -332h-92l70 332h-373z" />
<glyph unicode="&#xa6;" horiz-adv-x="219" d="M-31 -481l181 852h94l-181 -852h-94zM221 715l182 852h97l-183 -852h-96z" />
<glyph unicode="&#xa7;" horiz-adv-x="675" d="M23 -2l43 84q104 -64 204 -64q104 0 173.5 49t86.5 134q20 89 -49 151q-25 22 -78 51q-88 48 -127 82q-88 73 -90 160q0 43 9 92q38 175 217 256q-103 79 -76 219q20 96 81 162t152 96q61 21 133 21q118 0 213 -45l-45 -88q-73 49 -186 49q-211 0 -252 -188 q-11 -48 1 -85.5t34 -58.5t61 -45q61 -35 119 -65q185 -95 144 -279q-34 -163 -216 -283q81 -72 54 -200q-19 -91 -85 -154t-159 -94q-65 -21 -133 -21q-99 0 -229 64zM287 666q1 -32 17 -59t35.5 -45.5t49.5 -37.5q49 -30 125 -67q76 49 120 99t60 130q10 40 6.5 71 t-24.5 58q-21 31 -70 62q-32 20 -127 69q-156 -64 -186 -203q-7 -45 -6 -77z" />
<glyph unicode="&#xa8;" horiz-adv-x="606" d="M332 1260q6 27 31 48t55 21q29 0 47.5 -19.5t11.5 -49.5q-6 -30 -31 -51t-57 -21q-30 0 -46.5 20t-10.5 52zM666 1260q6 27 30 48t54 21q29 0 48.5 -20t12.5 -49q-6 -30 -31 -51t-57 -21q-28 0 -45.5 21t-11.5 51z" />
<glyph unicode="&#xa9;" horiz-adv-x="1589" d="M201 715q65 311 329 526q266 217 574 217q306 0 481 -217q174 -215 109 -524q-64 -305 -330 -524q-265 -218 -573 -218q-311 0 -484 215q-171 213 -106 525zM281 715q-58 -271 96 -469q151 -195 428 -195q276 0 514 197q237 197 295 467q58 273 -96 471 q-153 196 -431 196q-273 0 -509 -196q-239 -198 -297 -471zM475 690q38 181 146.5 310t269.5 188q101 37 211 37q129 0 250 -68l-52 -72q-94 58 -233 58q-176 0 -311 -117q-142 -120 -185 -315q-31 -142 18 -247t152 -151q67 -30 154 -30q132 0 254 67l20 -67 q-179 -84 -303 -84q-204 0 -321 141q-114 142 -70 350z" />
<glyph unicode="&#xaa;" horiz-adv-x="684" d="M240 903q25 115 124.5 180t241.5 76q90 6 166 -8q49 223 -117 223q-132 0 -274 -92v86q164 86 299 86q247 0 188 -274l-98 -463h-88l29 143q-86 -114 -213 -149q-37 -11 -78 -11q-95 0 -146.5 53.5t-33.5 149.5zM342 905q-13 -63 17 -94t96 -31q102 0 198 74q40 32 72 78 l33 145q-11 1 -60.5 8.5t-76.5 8.5q-228 6 -279 -189z" />
<glyph unicode="&#xab;" horiz-adv-x="792" d="M143 537l351 344h112l-354 -344l209 -336h-113zM461 537l350 344h115l-357 -344l209 -336h-112z" />
<glyph unicode="&#xac;" horiz-adv-x="980" d="M121 555l16 84h907l-104 -492h-86l86 408h-819z" />
<glyph unicode="&#xad;" horiz-adv-x="688" d="M188 555l21 90h547l-21 -90h-547z" />
<glyph unicode="&#xae;" horiz-adv-x="1589" d="M201 715q65 311 329 526q266 217 574 217q306 0 481 -217q174 -215 109 -524q-64 -305 -330 -524q-265 -218 -573 -218q-311 0 -484 215q-171 213 -106 525zM281 715q-58 -271 96 -469q151 -195 428 -195q276 0 514 197q237 197 295 467q58 273 -96 471 q-153 196 -431 196q-273 0 -509 -196q-239 -198 -297 -471zM573 242l205 966h264q109 0 184.5 -36.5t94.5 -112.5q12 -47 0 -105q-47 -221 -309 -268l192 -444h-104l-172 428h-172l-90 -428h-93zM770 741h195q76 0 133.5 32t91.5 85q24 38 33 80q43 199 -199 199h-170z" />
<glyph unicode="&#xaf;" horiz-adv-x="849" d="M420 1640l18 91h850l-18 -91h-850z" />
<glyph unicode="&#xb0;" horiz-adv-x="600" d="M299 1085q-23 98 41 195q62 93 162 133q50 21 100 21q80 0 134 -42.5t69 -111.5q22 -93 -41 -193q-58 -93 -162 -137q-47 -20 -102 -20q-79 0 -132 43t-69 112zM381 1116q9 -49 43 -79.5t88 -30.5q110 0 180 110q42 64 29 135q-9 48 -42.5 77.5t-86.5 29.5 q-58 0 -105 -31t-77 -76q-42 -64 -29 -135z" />
<glyph unicode="&#xb1;" horiz-adv-x="917" d="M6 0l17 84h907l-17 -84h-907zM139 633l19 84h411l88 411h84l-88 -411h412l-18 -84h-410l-88 -412h-84l88 412h-414z" />
<glyph unicode="&#xb2;" horiz-adv-x="673" d="M240 883l22 100l289 234q134 108 190 180q42 53 58 121q30 153 -125 153q-108 0 -242 -98l21 102q63 38 119.5 58t125.5 20q106 0 162.5 -58.5t32.5 -164.5q-16 -77 -55 -131t-109 -121q-54 -51 -133 -115l-231 -186l-3 -4h416l-20 -90h-518z" />
<glyph unicode="&#xb3;" horiz-adv-x="673" d="M242 905l22 96q84 -63 180 -63q91 0 151.5 47t78.5 125q19 84 -31 126t-168 42h-69l16 80h61q213 0 250 172q27 137 -123 137q-72 0 -184 -53l20 90q102 45 199 45q99 0 149.5 -53.5t30.5 -153.5q-34 -162 -194 -215v-4q74 -18 110.5 -72.5t18.5 -140.5 q-20 -86 -75 -145.5t-136 -87.5q-59 -19 -123 -19q-107 0 -184 47z" />
<glyph unicode="&#xb4;" horiz-adv-x="358" d="M264 1188l303 328h105l-318 -328h-90z" />
<glyph unicode="&#xb5;" horiz-adv-x="886" d="M-12 -391l301 1415h92l-123 -569q-20 -100 -20 -181q1 -110 56.5 -162.5t166.5 -52.5q143 0 254 107q107 104 145 278l123 580h92l-217 -1024h-90l39 186h-4q-150 -211 -377 -211q-178 0 -236 123h-8l-102 -489h-92z" />
<glyph unicode="&#xb6;" horiz-adv-x="821" d="M281 0l190 903q-106 0 -160.5 74.5t-29.5 189.5q18 89 73.5 153.5t134.5 94.5q52 19 103 19h495l-18 -86h-131l-287 -1348h-86l287 1348h-199l-284 -1348h-88z" />
<glyph unicode="&#xb7;" horiz-adv-x="260" d="M201 707q6 32 34 55.5t64 23.5q33 0 51.5 -22.5t11.5 -56.5q-6 -32 -35 -57t-65 -25q-33 0 -50.5 23.5t-10.5 58.5z" />
<glyph unicode="&#xb8;" horiz-adv-x="413" d="M-33 -430l17 74q46 -6 84 -6q160 0 178 92q9 43 -23 64.5t-104 21.5q-24 0 -64 -4l39 188h74l-27 -117q225 0 195 -147q-38 -170 -291 -170q-24 0 -78 4z" />
<glyph unicode="&#xb9;" horiz-adv-x="673" d="M238 883l18 82h195l145 682l-225 -70l20 88l314 94l-168 -794h190l-18 -82h-471z" />
<glyph unicode="&#xba;" horiz-adv-x="796" d="M279 1073q28 130 101 221.5t185 132.5q79 27 150 27q160 0 228.5 -103.5t31.5 -275.5q-33 -161 -152 -270q-122 -109 -276 -109q-157 0 -231 105t-37 272zM364.5 968.5q2.5 -66.5 32.5 -110.5q54 -80 168 -80q129 0 207.5 82.5t106.5 216.5q30 136 -18 216.5t-167 80.5 q-181 0 -276 -176q-25 -46 -40.5 -104.5t-13 -125z" />
<glyph unicode="&#xbb;" horiz-adv-x="796" d="M98 201l359 344l-213 336h114l205 -336l-348 -344h-117zM418 201l356 344l-211 336h113l207 -336l-353 -344h-112z" />
<glyph unicode="&#xbc;" horiz-adv-x="1435" d="M311 1278l21 88l313 94l-184 -876h-86l162 764zM336 0l1087 1434h97l-1164 -1434h-20zM854 219l14 64l506 567h90l-116 -553h108l-16 -78h-111l-112 -219h-15l45 219h-393zM973 297h293l94 444h-2q-61 -76 -62 -77z" />
<glyph unicode="&#xbd;" horiz-adv-x="1509" d="M260 0l1165 1434h97l-1164 -1434h-98zM311 1278l21 88l313 94l-184 -876h-86l162 764zM952 0l21 100l289 234q52 42 75 61.5t56.5 52t58.5 64.5q44 55 57 123q35 153 -125 153q-110 0 -241 -98l22 103q130 77 244 77q106 0 163.5 -58.5t33.5 -164.5q-18 -83 -78 -158 q-70 -89 -219 -208l-234 -187v-4h414l-19 -90h-518z" />
<glyph unicode="&#xbe;" horiz-adv-x="1462" d="M166 606l20 96q84 -63 183 -63q90 0 150.5 47t78.5 125q19 84 -32 126t-169 42h-69l16 80h62q214 0 251 172q27 137 -125 137q-70 0 -182 -53l19 90q102 45 200 45q99 0 150 -53.5t31 -153.5q-34 -162 -195 -215v-4q74 -18 109.5 -72.5t17.5 -140.5q-20 -86 -75 -145.5 t-136 -87.5q-59 -19 -123 -19q-105 0 -182 47zM283 0l1165 1434h96l-1163 -1434h-98zM879 219l14 64l506 567h90l-119 -553h111l-17 -78h-110l-115 -219h-12l45 219h-393zM995 297h293l94 444h-2q-33 -41 -59 -77z" />
<glyph unicode="&#xbf;" horiz-adv-x="718" d="M-8 -119q9 46 29.5 89t41 72.5t57.5 65.5t58.5 54t65.5 53q6 4 27.5 21t28 22t24 19t25.5 21.5t21 19t23.5 22t20.5 22.5q47 53 59 117q10 52 10 84q0 48 -2 64h80q5 -33 6.5 -63.5t-5.5 -60t-11 -51.5t-21.5 -48.5t-24.5 -41.5t-33 -41t-33 -35t-39 -35t-38 -30.5 t-41 -31.5q-50 -38 -73 -58q-131 -108 -160 -240q-23 -111 33.5 -173t169.5 -62q136 0 258 70q33 18 61 43l37 -66q-95 -70 -176 -103.5t-201 -33.5q-150 0 -230 81.5t-48 233.5zM516 961q6 32 34 56.5t64 24.5q33 0 52 -23t12 -58q-8 -33 -34.5 -56.5t-61.5 -23.5 q-34 0 -53.5 22.5t-12.5 57.5z" />
<glyph unicode="&#xc0;" d="M29 0l843 1434h95l231 -1434h-111l-69 446h-623l-258 -446h-108zM451 537h553l-103 663q-3 20 -8 109h-4q-6 -12 -58 -107zM854 1925h102l164 -328h-88z" />
<glyph unicode="&#xc1;" d="M29 0l843 1434h95l231 -1434h-111l-69 446h-623l-258 -446h-108zM451 537h553l-103 663q-3 20 -8 109h-4q-6 -12 -58 -107zM782 1597l303 328h105l-318 -328h-90z" />
<glyph unicode="&#xc2;" d="M29 0l843 1434h95l231 -1434h-111l-69 446h-623l-258 -446h-108zM451 537h553l-103 663q-3 20 -8 109h-4q-6 -12 -58 -107zM709 1597l292 336h46l147 -336h-86l-107 240l-210 -240h-82z" />
<glyph unicode="&#xc3;" d="M29 0l843 1434h95l231 -1434h-111l-69 446h-623l-258 -446h-108zM451 537h553l-103 663q-3 20 -8 109h-4q-6 -12 -58 -107zM641 1597q14 71 53 125t97 80q43 17 73 17q74 0 146 -72q32 -32 53 -45q22 -14 51 -14q40 0 76 36q35 35 51 109h74q-21 -95 -78.5 -159 t-146.5 -64q-66 0 -136 76q-51 55 -108 55q-101 0 -131 -144h-74z" />
<glyph unicode="&#xc4;" d="M29 0l843 1434h95l231 -1434h-111l-69 446h-623l-258 -446h-108zM451 537h553l-103 663q-3 20 -8 109h-4q-6 -12 -58 -107zM727 1669q6 27 31 48.5t55 21.5q29 0 47.5 -20t11.5 -50q-6 -30 -31 -51t-57 -21q-30 0 -46.5 20t-10.5 52zM1061 1669q6 28 30 49t54 21 q29 0 48.5 -20.5t12.5 -49.5q-6 -30 -31 -51t-57 -21q-28 0 -45.5 21t-11.5 51z" />
<glyph unicode="&#xc5;" horiz-adv-x="1228" d="M29 0l811 1374q-124 43 -97 176q11 60 55.5 105.5t104.5 66.5q44 13 80 13q65 0 107.5 -28.5t54.5 -80.5q9 -34 0 -76q-27 -127 -168 -174l221 -1376h-111l-69 446h-623l-258 -446h-108zM451 537h553l-101 663q-6 37 -10 109h-4q-22 -47 -55 -107zM817 1550 q-12 -52 18.5 -84t84.5 -32q58 0 100 33t53 83q12 55 -18 86t-86 31q-59 0 -100 -32.5t-52 -84.5z" />
<glyph unicode="&#xc7;" horiz-adv-x="1191" d="M203 702q71 344 301 549q231 207 551 207q222 0 362 -127l-67 -82q-116 119 -332 119q-247 0 -449 -182q-204 -188 -264 -473q-62 -296 53 -471q116 -176 371 -176q208 0 373 106l31 -78q-187 -119 -420 -119q-152 0 -264.5 53.5t-178.5 149.5q-137 199 -67 524z M338 -430l16 74q46 -6 84 -6q160 0 178 92q9 43 -23 64.5t-104 21.5q-23 0 -63 -4l39 188h74l-27 -117q225 0 195 -147q-38 -170 -291 -170q-24 0 -78 4z" />
<glyph unicode="&#xc8;" horiz-adv-x="784" d="M80 0l303 1434h670l-19 -91h-571l-121 -575h528l-18 -90h-530l-125 -588h604l-19 -90h-702zM633 1925h102l164 -328h-88z" />
<glyph unicode="&#xc9;" horiz-adv-x="784" d="M80 0l303 1434h670l-19 -91h-571l-121 -575h528l-18 -90h-530l-125 -588h604l-19 -90h-702zM563 1597l303 328h105l-318 -328h-90z" />
<glyph unicode="&#xca;" horiz-adv-x="784" d="M80 0l303 1434h670l-19 -91h-571l-121 -575h528l-18 -90h-530l-125 -588h604l-19 -90h-702zM489 1597l293 336h45l148 -336h-86l-107 240l-211 -240h-82z" />
<glyph unicode="&#xcb;" horiz-adv-x="784" d="M80 0l303 1434h670l-19 -91h-571l-121 -575h528l-18 -90h-530l-125 -588h604l-19 -90h-702zM506 1669q6 27 31 48.5t55 21.5q29 0 47.5 -20t11.5 -50q-6 -30 -31 -51t-57 -21q-30 0 -46.5 20t-10.5 52zM840 1669q6 28 30 49t54 21q29 0 48.5 -20.5t12.5 -49.5 q-6 -30 -31 -51t-57 -21q-28 0 -45.5 21t-11.5 51z" />
<glyph unicode="&#xcc;" horiz-adv-x="462" d="M78 0l303 1434h98l-303 -1434h-98zM297 1864h102l164 -328h-88z" />
<glyph unicode="&#xcd;" horiz-adv-x="462" d="M78 0l303 1434h98l-303 -1434h-98zM371 1536l303 328h104l-317 -328h-90z" />
<glyph unicode="&#xce;" horiz-adv-x="462" d="M78 0l303 1434h98l-303 -1434h-98zM219 1536l293 336h45l148 -336h-87l-106 240l-211 -240h-82z" />
<glyph unicode="&#xcf;" horiz-adv-x="462" d="M78 0l303 1434h98l-303 -1434h-98zM233 1608q6 27 31 48t55 21q29 0 48 -20t12 -49q-6 -30 -31 -51t-57 -21q-30 0 -47 20t-11 52zM567 1608q6 27 30 48t54 21q29 0 49 -20t13 -49q-6 -30 -31 -51t-57 -21q-28 0 -46 21t-12 51z" />
<glyph unicode="&#xd0;" horiz-adv-x="1329" d="M186 668l19 88h149l144 678h358q350 0 503.5 -173.5t78.5 -523.5q-54 -250 -204.5 -426t-377.5 -258q-151 -53 -324 -53h-337l141 668h-150zM311 90h226q480 0 694 367q66 112 102 276q129 610 -510 610h-245l-125 -587h403l-18 -88h-404z" />
<glyph unicode="&#xd1;" horiz-adv-x="1234" d="M76 0l303 1434h76l604 -1149q33 -68 43 -92h4q10 70 20 120l238 1121h98l-303 -1434h-69l-609 1159q-6 10 -30 70l-11 20h-4q-2 -11 -5 -32t-5 -31l-252 -1186h-98zM645 1597q14 71 53 125t97 80q43 17 73 17q74 0 146 -72q32 -32 53 -45q22 -14 51 -14q40 0 76 36 q35 35 51 109h74q-21 -95 -78.5 -159t-146.5 -64q-66 0 -136 76q-51 55 -108 55q-101 0 -131 -144h-74z" />
<glyph unicode="&#xd2;" horiz-adv-x="1445" d="M203 702q71 344 301 549q231 207 551 207q145 0 253 -52t173 -146q66 -97 84 -230.5t-15 -290.5q-74 -352 -303 -559q-226 -205 -534 -205q-152 0 -264.5 53.5t-178.5 149.5q-137 199 -67 524zM305 713q-62 -296 53 -471q116 -176 371 -176q266 0 459 174t258 483 q63 300 -53 473q-55 82 -150.5 127t-224.5 45q-247 0 -449 -182q-204 -188 -264 -473zM965 1925h102l164 -328h-88z" />
<glyph unicode="&#xd3;" horiz-adv-x="1445" d="M203 702q71 344 301 549q231 207 551 207q145 0 253 -52t173 -146q66 -97 84 -230.5t-15 -290.5q-74 -352 -303 -559q-226 -205 -534 -205q-152 0 -264.5 53.5t-178.5 149.5q-137 199 -67 524zM305 713q-62 -296 53 -471q116 -176 371 -176q266 0 459 174t258 483 q63 300 -53 473q-55 82 -150.5 127t-224.5 45q-247 0 -449 -182q-204 -188 -264 -473zM893 1597l303 328h104l-317 -328h-90z" />
<glyph unicode="&#xd4;" horiz-adv-x="1445" d="M203 702q71 344 301 549q231 207 551 207q145 0 253 -52t173 -146q66 -97 84 -230.5t-15 -290.5q-74 -352 -303 -559q-226 -205 -534 -205q-152 0 -264.5 53.5t-178.5 149.5q-137 199 -67 524zM305 713q-62 -296 53 -471q116 -176 371 -176q266 0 459 174t258 483 q63 300 -53 473q-55 82 -150.5 127t-224.5 45q-247 0 -449 -182q-204 -188 -264 -473zM819 1597l293 336h45l148 -336h-86l-107 240l-211 -240h-82z" />
<glyph unicode="&#xd5;" horiz-adv-x="1445" d="M203 702q71 344 301 549q231 207 551 207q145 0 253 -52t173 -146q66 -97 84 -230.5t-15 -290.5q-74 -352 -303 -559q-226 -205 -534 -205q-152 0 -264.5 53.5t-178.5 149.5q-137 199 -67 524zM305 713q-62 -296 53 -471q116 -176 371 -176q266 0 459 174t258 483 q63 300 -53 473q-55 82 -150.5 127t-224.5 45q-247 0 -449 -182q-204 -188 -264 -473zM750 1597q14 71 52.5 125t96.5 80q42 17 74 17q73 0 145 -72q32 -32 53 -45q22 -14 52 -14q39 0 75 36q37 37 52 109h73q-21 -95 -78.5 -159t-146.5 -64q-65 0 -135 76q-51 55 -109 55 q-101 0 -131 -144h-73z" />
<glyph unicode="&#xd6;" horiz-adv-x="1445" d="M203 702q71 344 301 549q231 207 551 207q145 0 253 -52t173 -146q66 -97 84 -230.5t-15 -290.5q-74 -352 -303 -559q-226 -205 -534 -205q-152 0 -264.5 53.5t-178.5 149.5q-137 199 -67 524zM305 713q-62 -296 53 -471q116 -176 371 -176q266 0 459 174t258 483 q63 300 -53 473q-55 82 -150.5 127t-224.5 45q-247 0 -449 -182q-204 -188 -264 -473zM838 1669q6 27 31 48.5t55 21.5q29 0 47.5 -20t11.5 -50q-6 -30 -31 -51t-57 -21q-30 0 -46.5 20t-10.5 52zM1171 1669q6 28 30 49t54 21q29 0 49 -20.5t13 -49.5q-6 -30 -31 -51 t-57 -21q-28 0 -46 21t-12 51z" />
<glyph unicode="&#xd7;" horiz-adv-x="909" d="M117 262l405 334l-262 336l72 59l264 -336l403 336l48 -59l-406 -336l262 -334l-72 -59l-262 336l-403 -336z" />
<glyph unicode="&#xd8;" horiz-adv-x="1468" d="M49 -4l223 213q-111 200 -47 493q71 344 301 549q231 207 551 207q236 0 373 -131l172 166l53 -53l-176 -168q146 -206 76 -533q-74 -350 -305 -559q-226 -205 -535 -205q-276 0 -420 172l-213 -202zM330 713q-56 -258 26 -426l1016 966q-118 115 -332 115 q-246 0 -448 -182q-96 -88 -164 -209t-98 -264zM395 223q121 -157 359 -157q263 0 456 174t258 483q64 295 -49 473z" />
<glyph unicode="&#xd9;" horiz-adv-x="1325" d="M182 551l187 883h98l-184 -869q-108 -499 301 -499q390 0 495 485l187 883h98l-182 -861q-126 -598 -637 -598q-486 0 -363 576zM764 1864h102l164 -328h-88z" />
<glyph unicode="&#xda;" horiz-adv-x="1325" d="M182 551l187 883h98l-184 -869q-108 -499 301 -499q390 0 495 485l187 883h98l-182 -861q-126 -598 -637 -598q-486 0 -363 576zM774 1534l303 328h105l-318 -328h-90z" />
<glyph unicode="&#xdb;" horiz-adv-x="1325" d="M182 551l187 883h98l-184 -869q-108 -499 301 -499q390 0 495 485l187 883h98l-182 -861q-126 -598 -637 -598q-486 0 -363 576zM684 1536l293 336h45l147 -336h-86l-106 240l-211 -240h-82z" />
<glyph unicode="&#xdc;" horiz-adv-x="1325" d="M182 551l187 883h98l-184 -869q-108 -499 301 -499q390 0 495 485l187 883h98l-182 -861q-126 -598 -637 -598q-486 0 -363 576zM690 1608q6 27 31 48t55 21q29 0 48 -20t12 -49q-6 -30 -31 -51t-57 -21q-30 0 -47 20t-11 52zM1024 1608q6 27 30 48t54 21q29 0 48.5 -20 t12.5 -49q-6 -30 -31 -51t-57 -21q-28 0 -45.5 21t-11.5 51z" />
<glyph unicode="&#xdd;" horiz-adv-x="1105" d="M326 1434h110l189 -691q16 -64 22 -106h4q2 2 12 19t17 26q126 179 539 752h106l-651 -889l-115 -545h-98l114 543zM649 1567l303 327h105l-318 -327h-90z" />
<glyph unicode="&#xde;" horiz-adv-x="874" d="M72 0l303 1434h98l-49 -238h248q454 0 368 -403q-33 -157 -132.5 -264t-248.5 -158q-95 -33 -217 -33h-200l-72 -338h-98zM260 428h205q195 0 315 92t156 260q71 326 -301 326h-229z" />
<glyph unicode="&#xdf;" horiz-adv-x="919" d="M68 2l221 1040q57 271 182 388q108 102 293 102q147 0 220 -90.5t40 -243.5q-55 -262 -338 -375v-4q112 -31 186.5 -103.5t92.5 -183.5q23 -157 -68 -309q-89 -153 -254 -217q-82 -31 -172 -31q-58 0 -139 29q-18 5 -31 14l49 70q76 -29 135 -29q114 0 197 53t131 138 q32 55 49.5 131t1.5 143q-46 201 -334 248l17 80q321 71 377 332q25 120 -24.5 192t-164.5 72q-118 0 -184.5 -53.5t-110.5 -157.5q-34 -76 -63 -209l-217 -1026h-92z" />
<glyph unicode="&#xe0;" horiz-adv-x="1011" d="M100 150q-12 55 2 114q24 104 90.5 176t160.5 108.5t218 45.5q124 8 269 -19l18 95q52 295 -184 295q-186 0 -342 -121l-45 59q172 146 413 146q164 0 226.5 -99t23.5 -284l-141 -666h-92l35 162q-43 -68 -162 -129q-118 -58 -234 -58q-104 0 -171.5 45.5t-84.5 129.5z M201 268q-20 -99 31 -154t153 -55q145 0 254 74q112 79 131 127l51 240q-81 16 -175 16.5t-179 -16.5q-225 -46 -266 -232zM526 1516h103l164 -328h-88z" />
<glyph unicode="&#xe1;" horiz-adv-x="1011" d="M100 150q-12 55 2 114q24 104 90.5 176t160.5 108.5t218 45.5q124 8 269 -19l18 95q52 295 -184 295q-186 0 -342 -121l-45 59q172 146 413 146q164 0 226.5 -99t23.5 -284l-141 -666h-92l35 162q-43 -68 -162 -129q-118 -58 -234 -58q-104 0 -171.5 45.5t-84.5 129.5z M201 268q-20 -99 31 -154t153 -55q145 0 254 74q112 79 131 127l51 240q-81 16 -175 16.5t-179 -16.5q-225 -46 -266 -232zM489 1188l304 328h104l-317 -328h-91z" />
<glyph unicode="&#xe2;" horiz-adv-x="1011" d="M100 150q-12 55 2 114q24 104 90.5 176t160.5 108.5t218 45.5q124 8 269 -19l18 95q52 295 -184 295q-186 0 -342 -121l-45 59q172 146 413 146q164 0 226.5 -99t23.5 -284l-141 -666h-92l35 162q-43 -68 -162 -129q-118 -58 -234 -58q-104 0 -171.5 45.5t-84.5 129.5z M201 268q-20 -99 31 -154t153 -55q145 0 254 74q112 79 131 127l51 240q-81 16 -175 16.5t-179 -16.5q-225 -46 -266 -232zM420 1188l293 336h45l147 -336h-86l-106 239l-211 -239h-82z" />
<glyph unicode="&#xe3;" horiz-adv-x="1011" d="M100 150q-12 55 2 114q24 104 90.5 176t160.5 108.5t218 45.5q124 8 269 -19l18 95q52 295 -184 295q-186 0 -342 -121l-45 59q172 146 413 146q164 0 226.5 -99t23.5 -284l-141 -666h-92l35 162q-43 -68 -162 -129q-118 -58 -234 -58q-104 0 -171.5 45.5t-84.5 129.5z M201 268q-20 -99 31 -154t153 -55q145 0 254 74q112 79 131 127l51 240q-81 16 -175 16.5t-179 -16.5q-225 -46 -266 -232zM465 1188q14 71 52.5 125t96.5 80q40 16 74 16q74 0 146 -72q32 -32 53 -45q22 -14 51 -14q39 0 76 37q36 36 51 108h74q-21 -95 -79 -159t-147 -64 q-65 0 -135 76q-51 55 -108 55q-101 0 -131 -143h-74z" />
<glyph unicode="&#xe4;" horiz-adv-x="1011" d="M100 150q-12 55 2 114q24 104 90.5 176t160.5 108.5t218 45.5q124 8 269 -19l18 95q52 295 -184 295q-186 0 -342 -121l-45 59q172 146 413 146q164 0 226.5 -99t23.5 -284l-141 -666h-92l35 162q-43 -68 -162 -129q-118 -58 -234 -58q-104 0 -171.5 45.5t-84.5 129.5z M201 268q-20 -99 31 -154t153 -55q145 0 254 74q112 79 131 127l51 240q-81 16 -175 16.5t-179 -16.5q-225 -46 -266 -232zM422 1260q6 27 31 48t55 21q29 0 47.5 -19.5t11.5 -49.5q-6 -30 -31 -51t-57 -21q-30 0 -46.5 20t-10.5 52zM756 1260q6 27 30 48t54 21 q29 0 48.5 -20t12.5 -49q-6 -30 -31 -51t-57 -21q-28 0 -45.5 21t-11.5 51z" />
<glyph unicode="&#xe5;" horiz-adv-x="847" d="M82 150q-12 50 4 114q35 115 116 195t197 114q71 21 144 21q157 0 264 -86l33 162q52 295 -185 295q-186 0 -342 -121l-45 59q172 146 414 146q164 0 226.5 -99t23.5 -284l-141 -666h-93l35 162q-43 -68 -162 -129q-118 -58 -231 -58q-104 0 -172.5 45.5t-85.5 129.5z M182 268q-20 -99 31.5 -154t153.5 -55q147 0 256 74q109 77 129 127l34 168q-117 88 -251 88q-101 0 -180.5 -40t-127.5 -107q-33 -44 -45 -101zM594 1372q13 62 54.5 105.5t101.5 64.5q38 14 84 14q84 0 132 -49.5t29 -134.5q-11 -60 -55 -104.5t-104 -65.5 q-38 -14 -80 -14q-85 0 -133 48.5t-29 135.5zM668 1372q-12 -54 16.5 -85.5t83.5 -31.5q58 0 101.5 33.5t54.5 83.5q12 55 -18.5 86t-86.5 31q-59 0 -99.5 -32.5t-51.5 -84.5z" />
<glyph unicode="&#xe7;" horiz-adv-x="907" d="M158 506q39 185 141 316t260 190q98 37 209 37q168 0 262 -82l-63 -72q-76 70 -219 70q-183 0 -314 -121q-132 -120 -180 -340q-42 -196 36 -320.5t261 -124.5q146 0 256 76l29 -72q-141 -88 -306 -88q-222 0 -323 147t-49 384zM313 -430l17 74q46 -6 84 -6q160 0 178 92 q9 43 -23 64.5t-104 21.5q-24 0 -64 -4l39 188h74l-27 -117q225 0 195 -147q-38 -170 -291 -170q-24 0 -78 4z" />
<glyph unicode="&#xe8;" horiz-adv-x="1032" d="M140 347q2 81 20 171q45 221 207 377q162 154 364 154q144 0 221 -76t86 -215q6 -94 -18 -209l-8 -41h-758q-45 -213 27 -330q72 -119 241 -119q175 0 332 109l27 -70q-199 -123 -396 -123q-87 0 -153.5 28t-107 77.5t-63.5 117.5t-21 149zM274 592h660q16 78 9.5 146 t-30.5 118.5t-75.5 79.5t-126.5 29q-144 0 -260 -97q-119 -98 -177 -276zM578 1516h102l164 -328h-88z" />
<glyph unicode="&#xe9;" horiz-adv-x="1032" d="M140 347q2 81 20 171q45 221 207 377q162 154 364 154q144 0 221 -76t86 -215q6 -94 -18 -209l-8 -41h-758q-45 -213 27 -330q72 -119 241 -119q175 0 332 109l27 -70q-199 -123 -396 -123q-87 0 -153.5 28t-107 77.5t-63.5 117.5t-21 149zM274 592h660q16 78 9.5 146 t-30.5 118.5t-75.5 79.5t-126.5 29q-144 0 -260 -97q-119 -98 -177 -276zM526 1188l303 328h105l-318 -328h-90z" />
<glyph unicode="&#xea;" horiz-adv-x="1032" d="M140 347q2 81 20 171q45 221 207 377q162 154 364 154q144 0 221 -76t86 -215q6 -94 -18 -209l-8 -41h-758q-45 -213 27 -330q72 -119 241 -119q175 0 332 109l27 -70q-199 -123 -396 -123q-87 0 -153.5 28t-107 77.5t-63.5 117.5t-21 149zM274 592h660q16 78 9.5 146 t-30.5 118.5t-75.5 79.5t-126.5 29q-144 0 -260 -97q-119 -98 -177 -276zM455 1188l293 336h45l147 -336h-86l-106 239l-211 -239h-82z" />
<glyph unicode="&#xeb;" horiz-adv-x="1032" d="M140 347q2 81 20 171q45 221 207 377q162 154 364 154q144 0 221 -76t86 -215q6 -94 -18 -209l-8 -41h-758q-45 -213 27 -330q72 -119 241 -119q175 0 332 109l27 -70q-199 -123 -396 -123q-87 0 -153.5 28t-107 77.5t-63.5 117.5t-21 149zM274 592h660q16 78 9.5 146 t-30.5 118.5t-75.5 79.5t-126.5 29q-144 0 -260 -97q-119 -98 -177 -276zM459 1260q6 27 31 48t55 21q29 0 47.5 -19.5t11.5 -49.5q-6 -30 -31 -51t-57 -21q-30 0 -46.5 20t-10.5 52zM793 1260q6 27 30 48t54 21q29 0 48.5 -20t12.5 -49q-6 -30 -31 -51t-57 -21 q-28 0 -45.5 21t-11.5 51z" />
<glyph unicode="&#xec;" horiz-adv-x="378" d="M227 0l217 1024h93l-218 -1024h-92zM324 1516h104l164 -328h-90z" />
<glyph unicode="&#xed;" horiz-adv-x="362" d="M100 0l217 1024h93l-217 -1024h-93zM145 1188l306 328h104l-319 -328h-91z" />
<glyph unicode="&#xee;" horiz-adv-x="507" d="M162 1188l293 336h45l147 -336h-86l-106 239l-211 -239h-82zM207 0l217 1024h90l-215 -1024h-92z" />
<glyph unicode="&#xef;" horiz-adv-x="495" d="M170 1260q6 27 31 48t55 21q29 0 47.5 -19.5t11.5 -49.5q-6 -30 -31 -51t-57 -21q-30 0 -46.5 20t-10.5 52zM201 0l217 1024h92l-217 -1024h-92zM506 1260q6 27 30 48t54 21q29 0 47.5 -19.5t11.5 -49.5q-6 -30 -31 -51t-57 -21q-28 0 -44.5 21t-10.5 51z" />
<glyph unicode="&#xf0;" horiz-adv-x="993" d="M129 289q-10 112 18.5 229t77.5 207q114 207 303 285q91 39 199 39q144 0 225 -93l4 5q-67 183 -155 296l-332 -149l-18 70l303 133q-111 121 -209 202h149q57 -47 154 -155l334 149l18 -71l-307 -136q187 -248 184 -583q-1 -186 -61.5 -338t-163.5 -252 q-156 -152 -363 -152q-163 0 -254.5 81t-105.5 233zM227 330q7 -81 37 -141.5t93 -95t153 -34.5q162 0 285 123q117 120 163 330q99 453 -247 453q-166 0 -297 -127q-128 -128 -172 -334q-22 -93 -15 -174z" />
<glyph unicode="&#xf1;" horiz-adv-x="1095" d="M72 0l217 1024h92l-37 -170q82 97 176 147q91 48 182 48q124 0 197 -95q85 -112 45 -297l-137 -657h-92l131 623q74 342 -187 342q-190 -15 -335 -207l-160 -758h-92zM537 1188q14 71 52.5 125t96.5 80q40 16 74 16q73 0 145 -72q32 -32 53 -45q22 -14 52 -14q38 0 75 37 t52 108h73q-21 -95 -78.5 -159t-146.5 -64q-65 0 -135 76q-51 55 -109 55q-101 0 -131 -143h-73z" />
<glyph unicode="&#xf2;" horiz-adv-x="1148" d="M158 506q39 185 141 316t260 190q98 37 209 37q164 0 260 -81.5t115 -232.5q13 -111 -16 -231.5t-78 -208.5q-114 -203 -308 -281q-95 -39 -211 -39q-222 0 -323 147t-49 384zM254 504q-42 -196 36 -320.5t261 -124.5q278 0 416 263q44 84 65 190q45 217 -25.5 335 t-258.5 118q-183 0 -314 -121q-132 -120 -180 -340zM600 1516h102l164 -328h-88z" />
<glyph unicode="&#xf3;" horiz-adv-x="1148" d="M158 506q39 185 141 316t260 190q98 37 209 37q164 0 260 -81.5t115 -232.5q13 -111 -16 -231.5t-78 -208.5q-114 -203 -308 -281q-95 -39 -211 -39q-222 0 -323 147t-49 384zM254 504q-42 -196 36 -320.5t261 -124.5q278 0 416 263q44 84 65 190q45 217 -25.5 335 t-258.5 118q-183 0 -314 -121q-132 -120 -180 -340zM578 1188l303 328h104l-317 -328h-90z" />
<glyph unicode="&#xf4;" horiz-adv-x="1148" d="M158 506q39 185 141 316t260 190q98 37 209 37q164 0 260 -81.5t115 -232.5q13 -111 -16 -231.5t-78 -208.5q-114 -203 -308 -281q-95 -39 -211 -39q-222 0 -323 147t-49 384zM254 504q-42 -196 36 -320.5t261 -124.5q278 0 416 263q44 84 65 190q45 217 -25.5 335 t-258.5 118q-183 0 -314 -121q-132 -120 -180 -340zM498 1188l293 336h45l147 -336h-86l-106 239l-211 -239h-82z" />
<glyph unicode="&#xf5;" horiz-adv-x="1148" d="M158 506q39 185 141 316t260 190q98 37 209 37q164 0 260 -81.5t115 -232.5q13 -111 -16 -231.5t-78 -208.5q-114 -203 -308 -281q-95 -39 -211 -39q-222 0 -323 147t-49 384zM254 504q-42 -196 36 -320.5t261 -124.5q278 0 416 263q44 84 65 190q45 217 -25.5 335 t-258.5 118q-183 0 -314 -121q-132 -120 -180 -340zM553 1188q14 71 52.5 125t96.5 80q40 16 74 16q74 0 146 -72q32 -32 53 -45q22 -14 51 -14q39 0 76 37q36 36 51 108h74q-21 -95 -79 -159t-147 -64q-65 0 -135 76q-51 55 -108 55q-101 0 -131 -143h-74z" />
<glyph unicode="&#xf6;" horiz-adv-x="1148" d="M158 506q39 185 141 316t260 190q98 37 209 37q164 0 260 -81.5t115 -232.5q13 -111 -16 -231.5t-78 -208.5q-114 -203 -308 -281q-95 -39 -211 -39q-222 0 -323 147t-49 384zM254 504q-42 -196 36 -320.5t261 -124.5q278 0 416 263q44 84 65 190q45 217 -25.5 335 t-258.5 118q-183 0 -314 -121q-132 -120 -180 -340zM506 1260q6 27 31 48t55 21q29 0 47.5 -19.5t11.5 -49.5q-6 -30 -31 -51t-57 -21q-30 0 -46.5 20t-10.5 52zM840 1260q6 27 30 48t54 21q29 0 48.5 -20t12.5 -49q-6 -30 -31 -51t-57 -21q-28 0 -45.5 21t-11.5 51z" />
<glyph unicode="&#xf7;" horiz-adv-x="917" d="M123 555l18 84h908l-19 -84h-907zM436 252q6 30 33.5 53t60.5 23q31 0 49 -22t11 -54q-6 -31 -32.5 -54.5t-59.5 -23.5q-31 0 -50 23t-12 55zM584 944q6 30 33.5 53t60.5 23q31 0 47.5 -22t9.5 -54q-6 -31 -32 -54.5t-58 -23.5q-31 0 -49.5 23t-11.5 55z" />
<glyph unicode="&#xf8;" horiz-adv-x="1191" d="M33 -39l209 189q-79 148 -33 356q39 185 141 316t260 190q98 37 209 37q197 0 297 -115l213 190l51 -55l-223 -199q69 -143 23 -360q-37 -176 -138 -306t-251 -190q-95 -39 -209 -39q-191 0 -295 113l-205 -184zM305 504q-38 -169 14 -285l723 647q-76 99 -243 99 q-183 0 -314 -121q-132 -120 -180 -340zM360 156q81 -97 242 -97q278 0 416 263q44 84 65 190q37 171 -6 287z" />
<glyph unicode="&#xf9;" horiz-adv-x="1095" d="M154 432l127 592h92l-121 -569q-21 -105 -21 -181q1 -110 56 -162.5t168 -52.5q189 0 364 220l158 745h92l-217 -1024h-92l39 186q-186 -213 -363 -213q-197 0 -263.5 115t-18.5 344zM565 1516h103l163 -328h-88z" />
<glyph unicode="&#xfa;" horiz-adv-x="1095" d="M154 432l127 592h92l-121 -569q-21 -105 -21 -181q1 -110 56 -162.5t168 -52.5q189 0 364 220l158 745h92l-217 -1024h-92l39 186q-186 -213 -363 -213q-197 0 -263.5 115t-18.5 344zM580 1188l303 328h104l-317 -328h-90z" />
<glyph unicode="&#xfb;" horiz-adv-x="1095" d="M154 432l127 592h92l-121 -569q-21 -105 -21 -181q1 -110 56 -162.5t168 -52.5q189 0 364 220l158 745h92l-217 -1024h-92l39 186q-186 -213 -363 -213q-197 0 -263.5 115t-18.5 344zM477 1188l293 336h45l148 -336h-86l-107 239l-211 -239h-82z" />
<glyph unicode="&#xfc;" horiz-adv-x="1095" d="M154 432l127 592h92l-121 -569q-21 -105 -21 -181q1 -110 56 -162.5t168 -52.5q189 0 364 220l158 745h92l-217 -1024h-92l39 186q-186 -213 -363 -213q-197 0 -263.5 115t-18.5 344zM492 1260q6 27 31 48t55 21q29 0 47.5 -19.5t11.5 -49.5q-6 -30 -31 -51t-57 -21 q-30 0 -46.5 20t-10.5 52zM825 1260q6 27 30 48t54 21q29 0 49 -20t13 -49q-6 -30 -31 -51t-57 -21q-28 0 -46 21t-12 51z" />
<glyph unicode="&#xfd;" horiz-adv-x="927" d="M-37 -467l45 84q6 -6 55 -6q122 0 230 170l143 227l-172 1016h103l133 -834l8 -77q91 152 274.5 455t274.5 456h100l-762 -1233q-91 -147 -166 -205q-88 -67 -190 -67q-44 0 -76 14zM485 1188l303 328h105l-318 -328h-90z" />
<glyph unicode="&#xfe;" horiz-adv-x="964" d="M-29 -471l422 1987h92l-149 -703q125 168 315 219q70 17 121 17q146 0 228 -77t96 -216q10 -110 -19.5 -228.5t-77.5 -210.5q-112 -215 -301 -299q-90 -43 -196 -43q-230 0 -301 207l-140 -653h-90zM217 256q56 -197 309 -197q157 0 285 136q124 133 172 352 q20 84 13.5 160t-33 133.5t-83.5 91t-137 33.5q-129 0 -233 -64q-114 -70 -197 -188z" />
<glyph unicode="&#xff;" horiz-adv-x="921" d="M-63 -467l47 84q6 -6 53 -6q121 0 229 170l144 227l-172 1016h104l131 -834l8 -77q91 152 274.5 455t274.5 456h100l-759 -1233q-89 -144 -168 -205q-88 -67 -191 -67q-43 0 -75 14zM500 1260q6 27 30 48t54 21q29 0 47.5 -19.5t11.5 -49.5q-6 -30 -31 -51t-57 -21 q-30 0 -45.5 20t-9.5 52zM834 1260q6 27 30 48t54 21q29 0 48.5 -20t12.5 -49q-6 -30 -32 -51t-58 -21q-28 0 -44.5 21t-10.5 51z" />
<glyph unicode="&#x178;" horiz-adv-x="1105" d="M326 1434h110l189 -691q16 -64 22 -106h4q2 2 12 19t17 26q126 179 539 752h106l-651 -889l-115 -545h-98l114 543zM545 1606q6 27 31 48t55 21q29 0 47.5 -19.5t11.5 -49.5q-6 -30 -31 -51t-57 -21q-30 0 -46.5 20t-10.5 52zM879 1606q6 27 30 48t54 21q29 0 48.5 -20 t12.5 -49q-6 -30 -31 -51t-57 -21q-28 0 -45.5 21t-11.5 51z" />
<glyph unicode="&#x2c6;" horiz-adv-x="538" d="M279 1188l292 336h45l148 -336h-86l-107 239l-211 -239h-81z" />
<glyph unicode="&#x2dc;" horiz-adv-x="729" d="M305 1188q14 71 53 125t97 80q40 16 73 16q74 0 146 -72q32 -32 53 -45q22 -14 51 -14q39 0 76 37q36 36 51 108h74q-21 -95 -78.5 -159t-146.5 -64q-66 0 -136 76q-51 55 -108 55q-101 0 -131 -143h-74z" />
<glyph unicode="&#x2000;" horiz-adv-x="966" />
<glyph unicode="&#x2001;" horiz-adv-x="1933" />
<glyph unicode="&#x2002;" horiz-adv-x="966" />
<glyph unicode="&#x2003;" horiz-adv-x="1933" />
<glyph unicode="&#x2004;" horiz-adv-x="644" />
<glyph unicode="&#x2005;" horiz-adv-x="483" />
<glyph unicode="&#x2006;" horiz-adv-x="322" />
<glyph unicode="&#x2007;" horiz-adv-x="322" />
<glyph unicode="&#x2008;" horiz-adv-x="241" />
<glyph unicode="&#x2009;" horiz-adv-x="386" />
<glyph unicode="&#x200a;" horiz-adv-x="107" />
<glyph unicode="&#x2010;" horiz-adv-x="706" d="M197 555l20 90h547l-21 -90h-546z" />
<glyph unicode="&#x2011;" horiz-adv-x="706" d="M197 555l20 90h547l-21 -90h-546z" />
<glyph unicode="&#x2012;" horiz-adv-x="706" d="M197 555l20 90h547l-21 -90h-546z" />
<glyph unicode="&#x2013;" horiz-adv-x="1165" d="M188 555l21 90h1024l-21 -90h-1024z" />
<glyph unicode="&#x2014;" horiz-adv-x="2189" d="M188 555l21 90h2048l-21 -90h-2048z" />
<glyph unicode="&#x2018;" horiz-adv-x="260" d="M221 985l248 449h78l-219 -449h-107z" />
<glyph unicode="&#x2019;" horiz-adv-x="260" d="M229 985l220 449h104l-252 -449h-72z" />
<glyph unicode="&#x201a;" horiz-adv-x="260" d="M-27 -225l217 444h105l-250 -444h-72z" />
<glyph unicode="&#x201c;" horiz-adv-x="555" d="M246 985l248 449h75l-217 -449h-106zM494 985l249 449h74l-219 -449h-104z" />
<glyph unicode="&#x201d;" horiz-adv-x="555" d="M252 985l219 449h104l-249 -449h-74zM500 985l217 449h106l-248 -449h-75z" />
<glyph unicode="&#x201e;" horiz-adv-x="555" d="M-4 -229l217 448h104l-249 -448h-72zM242 -229l219 448h104l-248 -448h-75z" />
<glyph unicode="&#x2022;" horiz-adv-x="579" d="M201 623q-23 92 39 182q60 89 157 129q55 20 99 20q75 0 124.5 -40.5t63.5 -106.5q17 -80 -16 -147t-90 -113q-85 -70 -185 -70q-76 0 -126 40.5t-66 105.5z" />
<glyph unicode="&#x2026;" horiz-adv-x="1214" d="M82 66q6 32 33 55.5t63 23.5q33 0 53 -22.5t13 -56.5q-8 -32 -37 -57t-64 -25q-34 0 -51.5 23.5t-9.5 58.5zM539 66q6 32 33 55.5t63 23.5q33 0 52.5 -22.5t12.5 -56.5q-8 -32 -36.5 -57t-63.5 -25q-34 0 -51.5 23.5t-9.5 58.5zM999 66q6 32 33.5 55.5t63.5 23.5 q33 0 52.5 -22.5t12.5 -56.5q-8 -33 -35.5 -57.5t-62.5 -24.5q-34 0 -52.5 23.5t-11.5 58.5z" />
<glyph unicode="&#x202f;" horiz-adv-x="386" />
<glyph unicode="&#x2039;" horiz-adv-x="446" d="M125 537l350 344h113l-357 -344l209 -336h-110z" />
<glyph unicode="&#x203a;" horiz-adv-x="446" d="M88 201l358 344l-210 336h112l205 -336l-350 -344h-115z" />
<glyph unicode="&#x205f;" horiz-adv-x="483" />
<glyph unicode="&#x20ac;" horiz-adv-x="946" d="M131 500l19 84h137q14 118 51 237h-139l18 84h150q96 259 264 408q163 145 354 145q123 0 223 -53l-22 -102q-106 71 -225 71q-153 0 -279 -119q-136 -127 -221 -350h543l-19 -84h-553q-29 -85 -49 -237h553l-18 -84h-543q-11 -153 27.5 -260.5t129.5 -153.5 q56 -27 127 -27q124 0 283 93l-20 -99q-150 -78 -293 -78q-144 0 -227 80t-113 219q-22 103 -13 226h-145z" />
<glyph unicode="&#x2122;" horiz-adv-x="1423" d="M336 1356l14 78h527l-17 -78h-221l-125 -584h-82l123 584h-219zM834 772l139 662h114l107 -545h4l350 545h109l-139 -662h-82l112 533l-344 -533h-67l-109 533l-113 -533h-81z" />
<glyph unicode="&#x25fc;" horiz-adv-x="1024" d="M0 0v1024h1024v-1024h-1024z" />
<glyph unicode="&#xfb03;" horiz-adv-x="1447" d="M225 0l199 940h-184l18 84h184l37 178q24 113 85.5 193.5t154.5 115.5q55 21 117 21q69 0 137 -39l-53 -74q-32 29 -107 29q-189 0 -244 -254l-34 -170h473l36 178q24 113 85.5 193.5t154.5 115.5q56 21 117 21q67 0 135 -39l-51 -74q-32 29 -107 29q-188 0 -243 -254 l-35 -170h510l-217 -1024h-93l199 940h-418l-198 -940h-92l198 940h-473l-199 -940h-92z" />
<glyph unicode="&#xfb04;" horiz-adv-x="1705" d="M229 0l199 940h-184l18 84h184l37 178q24 113 85.5 193.5t154.5 115.5q55 21 117 21q69 0 137 -39l-53 -74q-32 29 -107 29q-189 0 -244 -254l-34 -170h473l39 178q24 113 84 194t153 115q56 21 117 21q286 0 274 -205l-227 -1063q-25 -98 -2 -149.5t106 -51.5 q62 0 132 37l-19 -86q-75 -34 -141 -34q-228 0 -170 272l229 1075q-3 121 -205 121q-95 0 -154 -63t-87 -191l-37 -170h270l-16 -84h-273l-198 -940h-92l198 940h-473l-198 -940h-93z" />
</font>
</defs>
</svg>
