<?xml version="1.0" standalone="no"?>
<!DOCTYPE svg PUBLIC "-//W3C//DTD SVG 1.1//EN" "http://www.w3.org/Graphics/SVG/1.1/DTD/svg11.dtd" >
<svg xmlns="http://www.w3.org/2000/svg">
<metadata></metadata>
<defs>
<font id="homizio_novaitalic" horiz-adv-x="1226" >
<font-face units-per-em="2048" ascent="1638" descent="-410" />
<missing-glyph horiz-adv-x="559" />
<glyph unicode="AE" horiz-adv-x="1585" d="M4 0l1002 1434h813l-27 -134h-557l-111 -516h516l-26 -127h-516l-115 -530h590l-27 -127h-723l92 434h-456q-57 -80 -168.5 -240.5t-134.5 -193.5h-152zM545 561h397l158 739h-43q-27 -39 -512 -739z" />
<glyph unicode="ae" horiz-adv-x="1824" d="M299 156q-11 52 4 118q37 117 119 198t199 116q74 22 145 22q143 0 240 -65q4 20 11 59t11 58q45 268 -160 268q-168 0 -333 -125l-64 84q189 160 430 160q159 0 213 -78q29 -44 49 -113q164 191 410 191q144 0 223 -76.5t88 -216.5q6 -93 -18 -207l-13 -60h-729 q-17 -113 -1.5 -200.5t80 -141t169.5 -53.5q158 0 326 117l39 -102q-215 -134 -408 -134q-261 0 -332 205q-113 -104 -221 -155q-106 -50 -213 -50t-177 47t-87 134zM434 203q10 -53 53.5 -81t110.5 -28q128 0 231 70v-2q48 29 78 59q28 28 37 49l33 152q-103 76 -225 76 q-91 0 -162 -36t-115 -95q-57 -77 -41 -164zM1157 608h592q23 148 -28 235t-177 87q-190 0 -317 -185q-47 -71 -70 -137z" />
<glyph unicode="OE" horiz-adv-x="1753" d="M178 410q-20 153 20.5 314.5t110.5 287.5q154 279 443 391q135 53 307 53q151 0 256 -22h667l-26 -127h-555l-111 -521h516l-26 -127h-516l-115 -532h588l-27 -127h-700q-192 -25 -283 -25q-237 0 -379 112.5t-170 322.5zM336 713q-60 -278 47 -441q112 -170 369 -170 q122 0 264 27l250 1180q-119 22 -242 22q-252 0 -444 -174q-89 -80 -152 -194.5t-92 -249.5z" />
<glyph unicode="oe" horiz-adv-x="1843" d="M164 506q39 186 141.5 317t259.5 189q98 37 209 37q145 0 234.5 -67.5t119.5 -188.5q85 118 203 188q115 68 248 68q144 0 222 -76t87 -215q6 -92 -18 -209l-12 -60h-730q-21 -130 10 -227t111 -139q56 -29 127 -29q161 0 359 133l28 -108q-245 -144 -426 -144 q-268 0 -331 254q-178 -254 -469 -254q-221 0 -322.5 148t-50.5 383zM295 504q-39 -180 31 -295t239 -115q255 0 379 242q38 71 60 176q42 198 -22 308t-237 110q-160 0 -286 -113q-121 -110 -164 -313zM1161 608h590q23 148 -28 235t-177 87q-143 0 -239 -90.5t-146 -231.5 z" />
<glyph unicode="&#xfb01;" horiz-adv-x="854" d="M188 0l193 905h-176l24 119h177l32 152q25 116 87.5 197.5t158.5 117.5q61 22 119 22q70 0 155 -49l-77 -108q-45 39 -107 39q-162 0 -211 -228l-31 -143h492l-217 -1024h-127l192 905h-364l-193 -905h-127z" />
<glyph unicode="&#xfb02;" horiz-adv-x="1116" d="M201 0l190 905h-176l25 119h178l31 152q53 243 245 315q61 22 121 22q146 0 215.5 -53.5t63.5 -159.5l-217 -1028q-22 -83 -3.5 -128.5t87.5 -45.5q55 0 149 49l-29 -127q-78 -38 -157 -38q-241 0 -179 280l222 1034q-7 51 -56.5 75t-124.5 24q-162 0 -211 -228l-30 -143 h260l-25 -119h-262l-190 -905h-127z" />
<glyph horiz-adv-x="0" />
<glyph unicode="&#xd;" horiz-adv-x="198" />
<glyph unicode=" "  horiz-adv-x="559" />
<glyph unicode="&#x09;" horiz-adv-x="559" />
<glyph unicode="&#xa0;" horiz-adv-x="559" />
<glyph unicode="!" horiz-adv-x="219" d="M31 80q8 40 39.5 68t74.5 28q41 0 64 -27t14 -69q-8 -38 -42 -67t-77 -29q-40 0 -61 27.5t-12 68.5zM127 387l219 1032h131l-227 -1032h-123z" />
<glyph unicode="&#x22;" horiz-adv-x="497" d="M270 948l101 471h121l-101 -471h-121zM510 948l98 471h121l-108 -471h-111z" />
<glyph unicode="#" horiz-adv-x="1134" d="M113 502l51 114h266q23 50 65 146.5t64 146.5h-280l51 115h276q27 63 85 198t85 197h117l-168 -395h217q27 63 84 197.5t84 197.5h119l-170 -395h264l-51 -115h-260q-24 -52 -65 -149.5t-62 -143.5h272l-49 -114h-270q-18 -42 -77 -178t-87 -205h-119l164 383h-217 q-18 -42 -77 -178t-87 -205h-119l166 383h-272zM549 616h217q22 50 64 146.5t65 146.5h-217q-24 -53 -66.5 -151t-62.5 -142z" />
<glyph unicode="$" horiz-adv-x="784" d="M33 86l30 143q142 -105 291 -110l117 547q-90 59 -137 100q-48 41 -75 82.5t-30 97.5q-10 191 146 336q115 103 256 131l37 178h112l-37 -172q144 -3 242 -49l-31 -145q-103 68 -235 71l-119 -551q71 -46 129 -94q68 -58 97 -124.5t8 -164.5q-22 -106 -88.5 -185.5 t-161.5 -125.5q-75 -35 -140 -45l-45 -207h-112l43 201q-178 9 -297 86zM365 1009.5q0 -25.5 4.5 -46t15 -40t22 -34t29 -30t32 -26t34.5 -24.5l102 481q-91 -21 -153 -80t-80 -147q-6 -28 -6 -53.5zM469 127q188 41 229 217q6 29 6 55t-4 45.5t-15.5 39.5t-21 33 t-28.5 29.5t-31 26t-35 25.5z" />
<glyph unicode="%" horiz-adv-x="1550" d="M250 -33l1161 1450h137l-1159 -1450h-139zM272 1069q28 129 100 220t181 132q73 25 147 25q157 0 223.5 -103t30.5 -272q-24 -120 -96.5 -208.5t-177.5 -131.5q-76 -29 -148 -29q-155 0 -224.5 100.5t-35.5 266.5zM399 1067q-26 -109 16 -179.5t144 -70.5q150 0 232 152 q28 54 38 104q25 119 -14.5 186.5t-140.5 67.5q-112 0 -181.5 -73t-93.5 -187zM872 344q27 129 99.5 221t183.5 131q73 25 145 25q155 0 222.5 -104t31.5 -271q-25 -119 -97.5 -209t-176.5 -133q-76 -29 -147 -29q-155 0 -226 102.5t-35 266.5zM993 255.5q2 -56.5 25 -95.5 q44 -70 141 -70q156 0 234 152q25 49 37 106q27 122 -12.5 188t-143.5 66q-155 0 -236 -151q-21 -39 -34 -89t-11 -106.5z" />
<glyph unicode="&#x26;" horiz-adv-x="1341" d="M119 205q-16 69 2 162q27 134 127 237q101 104 270 176q-50 81 -72 168q-37 151 52 289q81 126 225 178q71 27 149 27q138 0 209 -78t43 -219q-18 -79 -55 -142.5t-93.5 -111t-115.5 -81t-139 -67.5q184 -242 305 -381q141 170 201 406h131q-64 -272 -262 -496 q40 -50 119.5 -142.5t111.5 -131.5l-194 2l-142 172q-238 -197 -504 -197q-205 0 -307 111q-45 50 -61 119zM256 373q-21 -98 17 -164t116 -94q55 -21 131 -21q204 0 404 164q-140 171 -207 256q-83 106 -131 174q-147 -65 -226 -139q-82 -76 -104 -176zM569 1020.5 q12 -80.5 82 -186.5q170 71 246 139q73 67 92 160q19 85 -24 137.5t-127 52.5q-151 0 -232 -135q-49 -87 -37 -167.5z" />
<glyph unicode="'" horiz-adv-x="231" d="M258 948l100 471h121l-98 -471h-123z" />
<glyph unicode="(" horiz-adv-x="460" d="M129 545q110 525 494 874h145q-402 -369 -510 -872q-102 -473 135 -860h-143q-228 357 -121 858z" />
<glyph unicode=")" horiz-adv-x="460" d="M-74 -313q398 386 500 860q108 501 -137 872h143q232 -344 121 -874q-108 -507 -483 -858h-144z" />
<glyph unicode="*" horiz-adv-x="739" d="M238 1090l61 120l252 -96l63 305h115l-63 -305q88 32 272 96l12 -120l-288 -70q21 -40 68 -126t67 -126l-121 -72l-109 260l-221 -260l-88 72l240 252q-133 38 -260 70z" />
<glyph unicode="+" horiz-adv-x="915" d="M106 535l25 118h397l86 398h119l-86 -398h397l-24 -118h-397l-84 -398h-119l84 398h-398z" />
<glyph unicode="," horiz-adv-x="282" d="M-55 -240l260 496h139l-285 -496h-114z" />
<glyph unicode="-" horiz-adv-x="706" d="M176 535l29 124h563l-27 -124h-565z" />
<glyph unicode="." horiz-adv-x="276" d="M57 80q8 40 40 68t75 28q41 0 65 -27t15 -69q-8 -38 -43 -67t-78 -29q-39 0 -61 27.5t-13 68.5z" />
<glyph unicode="/" horiz-adv-x="796" d="M-66 -229l1033 1648h135l-1039 -1648h-129z" />
<glyph unicode="0" horiz-adv-x="985" d="M159.5 486.5q8.5 93.5 30.5 193.5q79 376 240 569t379 193q415 0 262 -727q-78 -365 -233 -549q-158 -191 -371 -191q-98 0 -165.5 44t-99 114t-41.5 165t-1.5 188.5zM291 438q-7 -224 90 -303q50 -41 123 -41q72 0 137 41q131 81 221 309q49 128 76 258 q132 621 -164 621q-148 0 -266 -158q-116 -154 -184 -475q-30 -141 -33 -252z" />
<glyph unicode="1" horiz-adv-x="522" d="M236 1186l28 129l500 160l-313 -1475h-127l276 1305q-59 -19 -182 -59.5t-182 -59.5z" />
<glyph unicode="2" horiz-adv-x="911" d="M41 0l25 123l469 403q87 78 202 185q44 43 65.5 64.5t54 59t50 67t35 71t27.5 86.5q29 131 -27.5 197.5t-185.5 66.5q-173 0 -400 -168l33 158q199 129 404 129q174 0 261 -97t48 -274q-25 -124 -88 -213.5t-178 -200.5q-91 -88 -232 -208l-381 -330h670l-27 -119h-825z " />
<glyph unicode="3" horiz-adv-x="854" d="M27 57l30 146q160 -109 295 -109q121 0 209.5 46t140.5 126q36 55 48 119q17 79 -1.5 136.5t-68 90.5t-115.5 48.5t-151 15.5h-125l24 119h113q176 0 283.5 70.5t136.5 209.5q26 121 -29 184.5t-176 63.5q-126 0 -313 -106l30 141q194 84 324 84q163 0 249 -89t52 -253 q-56 -264 -297 -355q112 -31 169 -121.5t28 -226.5q-30 -144 -126.5 -244.5t-236.5 -146.5q-95 -31 -196 -31q-158 0 -297 82z" />
<glyph unicode="4" horiz-adv-x="980" d="M78 391l18 98l844 930h119l-195 -909h185l-25 -119h-184l-82 -391h-127l82 391h-635zM260 510h477l148 688z" />
<glyph unicode="5" horiz-adv-x="821" d="M45 35l31 147q142 -88 266 -88q125 0 215.5 51.5t142.5 139.5q34 52 50 133q68 317 -295 317q-153 0 -236 -53l158 737h659l-24 -121h-535l-94 -448q59 4 129 4q162 0 261.5 -60t119.5 -186q14 -92 -11 -190t-69 -172q-73 -125 -201 -198t-305 -73q-154 0 -262 60z" />
<glyph unicode="6" horiz-adv-x="944" d="M145 346q-3 133 29 279q81 375 272 594q195 223 457 223q118 0 213 -39l-31 -139q-109 59 -208 59q-178 0 -330 -168q-149 -168 -219 -434q146 180 364 180q117 0 195 -58.5t105 -159t1 -226.5q-46 -209 -194 -344q-153 -138 -338 -138q-158 0 -235.5 99t-80.5 272z M272 328q12 -141 109 -203q48 -31 113 -31q122 0 229 99q100 94 135 245q31 148 -23 246t-188 98q-127 0 -233 -98q-160 -145 -142 -356z" />
<glyph unicode="7" horiz-adv-x="886" d="M170 0l811 1298h-707l25 121h870l-10 -49l-850 -1370h-139z" />
<glyph unicode="8" horiz-adv-x="950" d="M117 344q56 261 370 395q-103 61 -149 152q-25 53 -24.5 118t18.5 120t47 100q81 127 248 186q76 27 164 27q118 0 195 -52t97 -147q12 -60 -4 -133q-50 -236 -329 -365q273 -123 217 -387q-29 -133 -117 -223t-219 -131q-95 -29 -199 -29q-170 0 -261.5 98t-53.5 271z M246 348q-18 -89 18 -147.5t107 -85.5q58 -21 116 -21q104 0 182.5 42t123.5 112q29 45 41 98q24 120 -35 197t-201 129q-72 -27 -122 -52t-100 -63t-82 -90t-48 -119zM455 1102q-40 -190 178 -295q273 105 313 293q23 105 -32 164t-162 59q-85 0 -150.5 -37t-107.5 -96 q-32 -47 -39 -88z" />
<glyph unicode="9" horiz-adv-x="944" d="M106 16l29 142q122 -64 209 -64q198 0 338 152q142 155 217 446q-142 -168 -358 -168q-179 0 -262 124t-43 319q45 210 196 344q149 131 340 131q156 0 232 -96.5t81 -266.5q4 -149 -39.5 -323t-103.5 -307q-142 -312 -371 -418q-118 -56 -254 -56q-108 0 -211 41z M371 985q-32 -150 24 -246t193 -96q113 0 223 90q108 93 129 205q26 116 1 214.5t-97 141.5q-50 29 -111 29q-125 0 -229 -96q-103 -97 -133 -242z" />
<glyph unicode=":" horiz-adv-x="251" d="M45 80q8 39 41 67.5t76 28.5q41 0 64 -27t14 -69q-8 -38 -42 -67t-77 -29q-40 0 -62.5 27.5t-13.5 68.5zM229 946q8 39 41.5 66.5t75.5 27.5q40 0 62.5 -26.5t15.5 -67.5q-8 -38 -42 -68t-77 -30q-40 0 -62.5 28.5t-13.5 69.5z" />
<glyph unicode=";" horiz-adv-x="292" d="M-61 -240l260 496h141l-289 -496h-112zM301 946q8 39 41 66.5t76 27.5q40 0 61.5 -26.5t14.5 -67.5q-8 -39 -41.5 -68.5t-75.5 -29.5q-41 0 -63 27.5t-13 70.5z" />
<glyph unicode="&#x3c;" horiz-adv-x="909" d="M111 565l8 39l940 473l-29 -135l-711 -354q93 -51 285 -156t285 -156l-31 -137z" />
<glyph unicode="=" horiz-adv-x="999" d="M141 348l27 121h909l-24 -121h-912zM221 723l25 119h911l-24 -119h-912z" />
<glyph unicode="&#x3e;" horiz-adv-x="907" d="M90 139l31 137l698 312q-92 58 -278.5 176.5t-278.5 177.5l29 135l739 -473l-8 -39z" />
<glyph unicode="?" horiz-adv-x="753" d="M254 1251q156 185 432 191q115 0 190.5 -48t96.5 -139q14 -57 0.5 -125.5t-39.5 -115.5q-25 -45 -67.5 -92.5t-73.5 -74.5t-92 -76t-80 -66q-36 -31 -52 -46.5t-35.5 -46t-27.5 -67.5q-15 -72 -4 -162h-117q-44 216 156 387q22 19 89 70.5t108 92.5t69 91q23 44 31 86 q23 97 -29 152t-152 55q-93 0 -172.5 -35t-136.5 -92zM272 80q8 40 40 68t75 28q42 0 65.5 -27t14.5 -69q-9 -40 -42.5 -68t-78.5 -28q-39 0 -61 27.5t-13 68.5z" />
<glyph unicode="@" horiz-adv-x="1699" d="M168 287.5q-25 143.5 12 324.5q73 349 359 590q282 240 630 240q170 0 301 -54t211 -151q78 -95 105.5 -221.5t-4.5 -294.5q-49 -230 -193 -387q-142 -154 -305 -154q-201 0 -201 185q-132 -185 -313 -185q-148 0 -207 105.5t-24 269.5q36 167 126.5 296.5t223.5 192.5 q87 41 180 41q59 0 105 -26t71 -66q3 8 8.5 24t9.5 29.5t7 24.5h123l-176 -584q-41 -188 88 -188q112 0 208 117q78 92 124 245.5t20 301.5q-30 178 -166 269t-356 91q-298 0 -531 -207q-107 -95 -184.5 -224t-108.5 -280q-50 -229 20 -392t236 -234q108 -47 267 -47 q232 0 432 90l55 -90q-283 -119 -522 -119q-178 0 -311 57t-214 162t-106 248.5zM672 563q-25 -117 7 -190.5t126 -73.5q122 0 223 131q95 120 139 326q22 100 -9.5 155.5t-117.5 55.5q-127 0 -229 -113q-97 -109 -139 -291z" />
<glyph unicode="A" d="M6 0l846 1434h119l231 -1434h-149l-68 434h-577q-91 -154 -252 -434h-150zM481 561h484l-97 619h2q-1 8 -3 23.5t-3 23.5q-152 -267 -383 -666z" />
<glyph unicode="B" horiz-adv-x="946" d="M66 0l303 1434h387q79 0 142 -21t106.5 -64t59.5 -107q8 -31 7 -67q0 -38 -8 -83q-26 -116 -97 -200.5t-175 -131.5q114 -30 169 -118q36 -57 36 -134q0 -42 -11 -90q-39 -185 -182 -301q-145 -117 -344 -117h-393zM225 127h242q159 0 254 73t125 210q8 36 8 67 q0 85 -58 135q-80 68 -266 68h-186zM371 807h176q218 0 325 156q37 53 48 112q7 35 7 64q0 168 -237 168h-213z" />
<glyph unicode="C" horiz-adv-x="1191" d="M188 702q53 254 195 435.5t358 265.5q135 53 301 53q223 0 377 -137l-96 -113q-125 125 -326 125q-235 0 -422 -172q-186 -169 -245 -446q-20 -96 -20 -180q0 -154 69 -263q109 -168 346 -168q200 0 371 113l43 -109q-206 -131 -439 -131q-151 0 -263.5 53.5 t-178.5 149.5q-93 136 -93 324q0 94 23 200z" />
<glyph unicode="D" horiz-adv-x="1218" d="M68 0l303 1434h368q257 0 412.5 -95.5t185.5 -300.5q8 -52 8 -106q0 -100 -27 -208q-41 -166 -112 -286q-162 -273 -465 -383q-149 -55 -325 -55h-348zM227 127h201q457 0 655 346q69 121 97 260q21 97 21 178q0 396 -503 396h-219z" />
<glyph unicode="E" horiz-adv-x="784" d="M63 0l304 1434h692l-29 -127h-555l-110 -521h516l-27 -127h-516l-115 -532h588l-25 -127h-723z" />
<glyph unicode="F" horiz-adv-x="747" d="M61 0l306 1434h690l-27 -127h-557l-113 -531h517l-25 -127h-516l-139 -649h-136z" />
<glyph unicode="G" horiz-adv-x="1222" d="M188 702q53 254 195 435.5t358 265.5q135 53 301 53q223 0 377 -137l-94 -111q-149 121 -326 121q-223 0 -411 -166q-93 -82 -160.5 -197t-97.5 -253q-21 -98 -21 -182q0 -154 70 -261q112 -168 346 -168q189 0 340 95l86 409h-328l27 127h465l-127 -592 q-133 -89 -254 -129q-116 -37 -234 -37q-151 0 -263.5 53.5t-178.5 149.5q-93 136 -93 324q0 94 23 200z" />
<glyph unicode="H" horiz-adv-x="1173" d="M63 0l306 1434h135l-135 -637h759l136 637h135l-305 -1434h-136l144 670h-760l-141 -670h-138z" />
<glyph unicode="I" horiz-adv-x="258" d="M57 0l303 1434h136l-303 -1434h-136z" />
<glyph unicode="J" horiz-adv-x="548" d="M-66 -203l76 123q50 -18 90 -18q124 0 199 96q75 97 119 303l239 1133h136l-240 -1135q-111 -524 -483 -524q-54 0 -136 22z" />
<glyph unicode="K" horiz-adv-x="995" d="M61 0l306 1434h135l-133 -625q337 305 698 625h176l-776 -697q85 -122 256 -368.5t256 -368.5h-188l-453 666l-141 -666h-136z" />
<glyph unicode="L" horiz-adv-x="749" d="M59 0l306 1434h135l-279 -1307h559l-24 -127h-697z" />
<glyph unicode="M" horiz-adv-x="1488" d="M66 0l303 1434h120l285 -1135q3 -13 7 -37t7 -37q34 60 46 80l757 1129h117l-303 -1434h-131l235 1112q-422 -628 -743 -1112h-55l-279 1130l-239 -1130h-127z" />
<glyph unicode="N" horiz-adv-x="1234" d="M61 0l306 1434h102l592 -1127q2 -5 8 -16t8 -19q1 7 3 14.5t3 12.5q1 4 2 12.5t2 12.5l236 1110h135l-303 -1434h-96l-596 1135q-17 29 -19 34l-247 -1169h-136z" />
<glyph unicode="O" horiz-adv-x="1445" d="M190 702q53 254 195 435.5t358 265.5q135 53 301 53q145 0 254.5 -52.5t174.5 -146.5q90 -132 90 -318q0 -94 -23 -202q-75 -352 -301 -557t-537 -205q-151 0 -263.5 53.5t-178.5 149.5q-93 136 -93 324q0 94 23 200zM332 713q-21 -98 -21 -182q0 -154 70 -261 q112 -168 346 -168q250 0 430 166q182 166 244 455q21 99 21 184q0 155 -70 262q-110 162 -353 162q-234 0 -421 -172q-187 -170 -246 -446z" />
<glyph unicode="P" horiz-adv-x="882" d="M59 0l303 1434h357q388 0 388 -292q0 -54 -13 -118q-33 -158 -132 -268t-247 -162q-103 -35 -221 -35h-183l-116 -559h-136zM340 686h178q183 0 292.5 84t143.5 242q9 45 9 83q0 212 -287 212h-205z" />
<glyph unicode="Q" horiz-adv-x="1421" d="M190 702q53 254 195 435.5t358 265.5q135 53 301 53q145 0 254.5 -52.5t174.5 -146.5q90 -132 90 -318q0 -94 -23 -202q-90 -424 -395 -628q105 -97 151 -140l-98 -84l-170 158q-151 -68 -326 -68q-151 0 -263.5 53.5t-178.5 149.5q-93 136 -93 324q0 94 23 200zM332 713 q-21 -98 -21 -182q0 -154 70 -261q112 -168 346 -168q103 0 205 31l-80 74l96 86l109 -103q264 151 344 533q21 99 21 184q0 155 -70 262q-110 162 -353 162q-234 0 -421 -172q-187 -170 -246 -446z" />
<glyph unicode="R" horiz-adv-x="966" d="M57 0l305 1434h406q182 0 278 -100q69 -71 69 -184q0 -45 -11 -97q-48 -231 -258 -344q-62 -35 -148 -54q39 -108 118 -327.5t118 -327.5h-154l-219 623h-235l-131 -623h-138zM352 748h219q232 0 342 170q35 56 50 124q8 39 8 72q0 80 -48 127q-68 66 -210 66h-242z" />
<glyph unicode="S" horiz-adv-x="849" d="M37 106l104 103q108 -105 244 -105q150 0 244.5 60t118.5 178q7 34 7 63q0 41 -15 71q-26 50 -91 102q-39 32 -127 90q-87 58 -151 116q-60 54 -78 97q-24 50 -24 109v13q3 66 22 123t49 103q91 137 270 198q83 29 187 29q180 -6 307 -127l-107 -102q-107 104 -239 104 q-101 0 -178 -38t-121 -103q-49 -71 -48 -151q0 -15 1 -31q3 -36 28 -72q22 -31 74 -74q52 -42 127 -92q85 -58 141 -108q68 -64 98 -134q17 -41 17 -91q0 -37 -8 -79q-29 -134 -116 -223.5t-220 -128.5q-98 -29 -211 -29q-176 6 -305 129z" />
<glyph unicode="T" horiz-adv-x="944" d="M274 1307l27 127h938l-27 -127h-401l-276 -1307h-136l277 1307h-402z" />
<glyph unicode="U" horiz-adv-x="1124" d="M170 555l184 879h135l-184 -865q-21 -97 -21 -174q0 -293 298 -293q361 0 460 453l187 879h133l-182 -856q-129 -603 -643 -603q-392 0 -392 371q0 93 25 209z" />
<glyph unicode="V" horiz-adv-x="1204" d="M309 1434h150l168 -1135q1 -11 3 -32.5t3 -33.5q5 9 17.5 30.5t19.5 35.5l673 1135h146l-860 -1434h-99z" />
<glyph unicode="W" horiz-adv-x="1818" d="M334 1434h147l82 -1131q0 -5 1 -15t1 -14v-24q71 131 150.5 283.5t175 338t147.5 285.5q25 49 74.5 141.5t71.5 135.5h78l79 -1133v-27q0 -16 2 -26q84 172 280.5 573t299.5 613h145l-722 -1434h-109l-90 1063q-4 26 -2 43q-1 -2 -9 -17.5t-12 -23.5 q-91 -172 -280.5 -532.5t-280.5 -532.5h-108z" />
<glyph unicode="X" horiz-adv-x="1124" d="M23 0l608 725q-17 45 -120.5 307.5t-156.5 401.5h160l207 -535q6 -22 20 -63q9 13 28.5 35.5t23.5 27.5l430 535h155l-579 -709q216 -550 286 -725h-161l-213 543q-13 31 -25 67q-7 -11 -16 -22t-20 -24t-17 -21q-25 -31 -194 -234.5t-255 -308.5h-161z" />
<glyph unicode="Y" horiz-adv-x="1040" d="M301 1434h152l186 -682q1 -7 6.5 -30t7.5 -36q63 88 250 347.5t287 400.5h147l-653 -889l-115 -545h-133l115 543q-41 147 -125 445.5t-125 445.5z" />
<glyph unicode="Z" horiz-adv-x="1062" d="M8 0l10 55l1094 1252h-760l27 127h964l-10 -52l-1097 -1255h817l-27 -127h-1018z" />
<glyph unicode="[" horiz-adv-x="389" d="M-12 -313l366 1732h344l-24 -121h-217l-320 -1493h217l-24 -118h-342z" />
<glyph unicode="\" horiz-adv-x="796" d="M283 1419h135l334 -1648h-131z" />
<glyph unicode="]" horiz-adv-x="391" d="M-80 -313l25 118h215l317 1493h-215l25 121h344l-369 -1732h-342z" />
<glyph unicode="^" horiz-adv-x="860" d="M143 676l553 766h64l227 -766h-135l-166 569q-45 -63 -128 -178.5t-152 -211.5t-127 -179h-136z" />
<glyph unicode="_" horiz-adv-x="991" d="M2 -258l27 125h858l-27 -125h-858z" />
<glyph unicode="`" horiz-adv-x="358" d="M291 1497h149l176 -354h-133z" />
<glyph unicode="a" horiz-adv-x="874" d="M88 156q-5 22 -5 46q0 33 9 70q39 170 180 254t359 84q97 0 174 -12q18 90 18 160q-1 6 -1 10q-2 74 -43 118t-124 44q-166 0 -331 -125l-64 84q189 160 430 160q168 0 232 -101q39 -62 40 -157q0 -59 -16 -132l-139 -659h-127l22 113q-108 -90 -258 -125 q-54 -13 -94 -13q-107 0 -176 47t-86 134zM223 203q10 -53 53.5 -81t110.5 -28q128 0 231 70v-2q48 31 76 59q32 31 39 49l45 213q-67 15 -160 15q-232 0 -339 -113q-30 -32 -48 -81q-12 -32 -12 -64q0 -18 4 -37z" />
<glyph unicode="b" horiz-adv-x="978" d="M37 0l317 1497h127l-133 -625q107 112 248 156q59 19 115 19q98 0 171 -42.5t117 -113.5q65 -102 66 -240q0 -67 -16 -141q-52 -248 -215 -395q-154 -140 -365 -140q-203 0 -276 156l-29 -131h-127zM223 283q49 -90 112 -139.5t169 -49.5q145 0 256 107q117 114 158 307 q12 54 12 103q0 67 -22 127q-38 102 -124 155q-51 32 -120 35q-58 -4 -107.5 -21t-95.5 -51t-71 -57t-71 -70z" />
<glyph unicode="c" horiz-adv-x="880" d="M145 506q39 185 141.5 316t260.5 190q98 37 211 37q163 0 272 -95l-90 -100q-85 76 -213 76q-161 0 -287 -113q-121 -110 -164 -313q-14 -64 -14 -120q0 -101 46 -175q70 -115 239 -115q132 0 254 84l39 -104q-155 -99 -322 -99q-222 0 -323 147q-67 98 -67 235 q0 69 17 149z" />
<glyph unicode="d" horiz-adv-x="978" d="M102 234q-12 55 -12 117q0 74 16 159q24 113 80 211t131 170q164 156 357 156q107 0 179 -47.5t108 -127.5l133 625h127l-320 -1497h-127l29 131q-144 -156 -346 -156q-145 0 -237 70t-118 189zM222 348q6 -76 32.5 -132t83.5 -89t137 -33q98 0 201 58q80 47 160 131 l94 446q-25 44 -45.5 72.5t-51.5 59t-71.5 47t-91.5 20.5q-137 -5 -267 -125q-127 -121 -167 -295q-15 -63 -15 -122q-1 -19 1 -38z" />
<glyph unicode="e" horiz-adv-x="950" d="M128 346q2 81 19 172q48 221 209 375q167 156 365 156q144 0 223 -76.5t88 -216.5q1 -19 1 -38q0 -78 -19 -169l-13 -60h-729q-9 -59 -9 -111q-1 -48 7 -90q16 -88 80.5 -141t169.5 -53q158 0 326 117l39 -102q-218 -134 -410 -134q-87 0 -154 27.5t-108 77t-64 117.5 q-22 64 -22 139q1 5 1 10zM303 608h592q7 47 7 88q0 90 -34 148q-50 86 -176 86q-123 0 -227 -84q-103 -83 -162 -238z" />
<glyph unicode="f" horiz-adv-x="634" d="M178 0l193 905h-178l24 119h178l31 152q25 116 88 197.5t160 117.5q61 22 119 22q70 0 155 -49l-78 -108q-45 39 -106 39q-162 0 -211 -228l-31 -143h260l-24 -119h-260l-193 -905h-127z" />
<glyph unicode="g" horiz-adv-x="995" d="M2 -375l109 103q90 -72 223 -72q388 0 477 412l14 65q-158 -158 -372 -158q-104 0 -178.5 40.5t-111.5 111t-47 165.5q-3 27 -3 55q0 71 18 149q49 239 213 397q163 156 375 156q188 0 270 -138l25 113h127l-199 -932q-28 -131 -74 -228.5t-120 -173t-184.5 -114.5 t-256.5 -39q-150 0 -305 88zM248 347q5 -74 29 -130.5t78.5 -89.5t133.5 -33q103 0 197 51q97 52 172 146l98 459q-95 180 -260 180q-147 0 -272 -119q-122 -121 -162 -309q-15 -64 -15 -124q0 -16 1 -31z" />
<glyph unicode="h" horiz-adv-x="878" d="M57 0l320 1497h127l-129 -606q155 158 354 158q175 -1 237 -109q37 -65 38 -162q0 -66 -17 -147l-133 -631h-127l129 610q16 75 16 132q0 66 -21 108q-39 80 -171 80q-167 0 -344 -223l-152 -707h-127z" />
<glyph unicode="i" horiz-adv-x="202" d="M37 0l217 1024h127l-217 -1024h-127zM289 1327q8 38 38.5 65t71.5 27q39 0 61 -26q16 -18 15 -44q0 -10 -2 -22q-8 -38 -39.5 -65t-73.5 -27q-38 0 -59 26q-15 18 -15 43q0 11 3 23z" />
<glyph unicode="j" horiz-adv-x="579" d="M-131 -399l63 108q79 -53 150 -53q230 0 309 375l211 993h127l-207 -977q-108 -510 -477 -510q-100 0 -176 64zM639 1327q8 38 39 65t72 27q39 0 62 -26q16 -19 16 -44q0 -11 -3 -22q-8 -38 -40 -65t-74 -27q-38 0 -59 26q-16 18 -16 44q0 10 3 22z" />
<glyph unicode="k" horiz-adv-x="790" d="M57 0l318 1497h127l-195 -915q86 72 259 220.5t259 221.5h168l-592 -498q51 -65 157 -199.5t157 -199.5q64 -82 100 -127h-182l-350 463l-99 -463h-127z" />
<glyph unicode="l" horiz-adv-x="239" d="M49 0l318 1497h127l-318 -1497h-127z" />
<glyph unicode="m" horiz-adv-x="1513" d="M63 0l218 1024h127l-27 -123q73 70 156 111q75 37 161 37q112 0 197 -97q24 -27 43 -69q76 82 164 125q84 41 170 41q104 0 168.5 -60.5t85.5 -159.5q6 -31 6 -67q0 -50 -12 -109l-138 -653h-127l131 618q14 69 14 123q0 189 -177 189q-144 -16 -265 -144q1 -13 1 -27 q0 -48 -13 -106l-137 -653h-127l131 618q14 69 14 123q0 189 -178 189q-97 -10 -168 -58t-135 -129l-156 -743h-127z" />
<glyph unicode="n" horiz-adv-x="923" d="M57 0l217 1024h127l-26 -123q77 74 155 111t162 37q103 0 169 -60.5t87 -159.5q5 -27 5 -59q0 -51 -13 -117l-137 -653h-127l131 618q14 69 14 123q0 189 -178 189q-96 -10 -166 -57.5t-135 -129.5l-158 -743h-127z" />
<glyph unicode="o" horiz-adv-x="1071" d="M147 506q39 185 141.5 316t260.5 190q98 37 209 37q164 0 261 -82t116 -232q4 -33 4 -68q-1 -79 -21 -163q-30 -122 -78 -209q-112 -200 -309 -279q-100 -41 -211 -41q-222 0 -323 147q-67 98 -67 235q0 69 17 149zM279 504q-14 -64 -14 -120q0 -101 45 -175 q70 -115 239 -115q255 0 379 242q36 68 59 176q17 79 17 144q0 98 -38 164q-64 110 -237 110q-161 0 -287 -113q-120 -108 -163 -313z" />
<glyph unicode="p" horiz-adv-x="978" d="M-59 -455l313 1479h127l-29 -131q144 156 346 156q218 0 311 -148q60 -96 60 -228q0 -73 -18 -157q-24 -113 -80.5 -212t-132.5 -171q-161 -153 -355 -153q-210 0 -286 172l-129 -607h-127zM225 295q49 -89 106.5 -139t153.5 -58q137 5 267 125q129 122 168 295 q15 63 15 121q0 19 -1 37q-7 75 -33 131.5t-82.5 89.5t-136.5 33q-61 0 -113.5 -15t-100.5 -48.5t-74.5 -57t-71.5 -68.5z" />
<glyph unicode="q" horiz-adv-x="978" d="M145 516q52 245 215 393q154 140 365 140q199 0 279 -156l26 131h127l-313 -1479h-127l129 607q-106 -111 -248 -156q-49 -16 -113 -16q-98 0 -172 41.5t-118 111.5q-65 103 -65 241q0 67 15 142zM279 518q-12 -54 -12 -104q0 -68 22 -127q38 -103 123 -154 q51 -32 120 -35q47 3 91.5 17.5t73.5 29.5t68 46.5t56 48t56 55.5l94 446q-25 43 -47 72.5t-55.5 58.5t-78 43.5t-100.5 14.5q-145 0 -256 -107q-114 -111 -155 -305z" />
<glyph unicode="r" horiz-adv-x="552" d="M55 0l217 1024h125l-24 -115q68 65 141 101q65 32 148 32q48 0 143 -34l-68 -125q-29 22 -53 32.5t-59 10.5q-157 0 -287 -183l-158 -743h-125z" />
<glyph unicode="s" horiz-adv-x="737" d="M45 86l82 115q67 -74 174 -99q40 -8 55 -8q211 0 248 172q3 13 3 25q0 43 -34 76q-41 42 -133 88q-126 60 -176 135q-33 48 -33 110q0 28 7 60q21 99 91.5 167.5t170.5 100.5q65 21 137 21q126 0 256 -86l-72 -115q-114 82 -221 82q-129 0 -203 -99q-19 -27 -28 -65 q-4 -20 -4 -38q0 -38 18 -64q21 -29 51 -48.5t84 -46.5q90 -46 121 -69q63 -43 89 -96q15 -31 15 -72q0 -30 -8 -66q-21 -101 -90 -169.5t-170 -98.5q-66 -21 -143 -21h-6q-80 1 -146 27q-74 30 -135 82z" />
<glyph unicode="t" horiz-adv-x="569" d="M190 905l25 119h176l62 287h127l-62 -287h260l-24 -119h-260l-134 -633q-12 -46 -12 -80q0 -28 8 -48q18 -46 88 -46q52 0 111 33l14 -108q-84 -41 -161 -41q-192 0 -192 177q0 46 13 103l138 643h-177z" />
<glyph unicode="u" horiz-adv-x="921" d="M141 434l125 590h129l-121 -567q-20 -90 -20 -164q0 -199 201 -199q83 0 168 51q77 46 159 148l156 731h127l-217 -1024h-127l29 137q-77 -74 -162 -119q-82 -43 -160 -43q-199 1 -267 115q-40 67 -40 173q0 76 20 171z" />
<glyph unicode="v" horiz-adv-x="937" d="M223 1024h139l132 -797q2 -12 2 -39q4 6 10 17.5t10 17.5l479 801h138l-623 -1024h-109z" />
<glyph unicode="w" horiz-adv-x="1400" d="M248 1024h137l64 -801v-4q81 150 228 427.5t200 377.5h88l59 -803v2q38 75 185 362t223 439h131l-535 -1024h-110l-60 756q-1 1 -1 2t-1 2v-2q-306 -571 -405 -758h-111z" />
<glyph unicode="x" horiz-adv-x="903" d="M27 0l446 500q-39 94 -115 270.5t-108 253.5h149l148 -362q13 -37 24 -62q69 83 197 233t162 191h151l-458 -522q36 -79 114.5 -251t114.5 -251h-162l-166 401l-26 -30q-3 -4 -11 -13t-12 -14l-295 -344h-153z" />
<glyph unicode="y" horiz-adv-x="948" d="M-49 -442l67 125q22 -19 60 -19q101 0 201 152l135 211q-28 162 -85.5 498.5t-84.5 498.5h141l127 -813l2 -25q6 6 10 17l498 821h137l-747 -1214q-46 -73 -84 -121t-86 -84q-89 -68 -195 -68q-35 0 -96 21z" />
<glyph unicode="z" horiz-adv-x="894" d="M16 0l13 59l815 846h-588l25 119h796l-10 -49l-823 -856h616l-24 -119h-820z" />
<glyph unicode="{" horiz-adv-x="448" d="M98 504l21 96q155 21 196 217l66 301q32 144 113 219.5t233 81.5l-25 -119q-93 -4 -134 -54.5t-64 -153.5l-60 -283q-40 -193 -170 -258q102 -64 58 -272l-58 -267q-35 -162 41 -194q29 -13 70 -13l-25 -120q-104 5 -163 42.5t-68 122.5q-7 62 10 136l62 284 q47 213 -103 234z" />
<glyph unicode="|" horiz-adv-x="241" d="M-47 -463l426 2009h131l-428 -2009h-129z" />
<glyph unicode="}" horiz-adv-x="446" d="M-53 -315l24 120q91 3 134.5 55.5t62.5 151.5l57 267q43 208 172 272q-99 63 -59 258l59 283q8 37 10.5 64t0 55t-16 47.5t-37.5 29.5q-27 9 -65 12l24 119q104 -5 164.5 -43.5t69.5 -122.5q6 -55 -12 -135l-64 -301q-41 -196 102 -217l-18 -96q-154 -21 -201 -234 l-59 -284q-30 -144 -112.5 -219.5t-235.5 -81.5z" />
<glyph unicode="~" horiz-adv-x="954" d="M141 461q32 119 107.5 194.5t193.5 75.5q100 0 183 -80q53 -53 80 -67q30 -15 67 -15q111 0 164 154h111q-32 -119 -109 -195.5t-195 -76.5q-97 0 -186 86q-78 75 -141 75q-115 0 -162 -151h-113z" />
<glyph unicode="&#xa1;" horiz-adv-x="212" d="M-47 -393l217 1032h131l-219 -1032h-129zM205 944q8 38 42 67t77 29q40 0 62 -27.5t13 -68.5q-8 -40 -40.5 -68t-75.5 -28q-41 0 -64 27t-14 69z" />
<glyph unicode="&#xa2;" horiz-adv-x="813" d="M150 651q33 160 122 282.5t217 194.5q87 50 185 68l41 195h127l-39 -187q106 -6 231 -67l-65 -125q-98 64 -193 73l-176 -829q108 12 223 88l11 -123q-135 -71 -259 -84l-40 -192h-127l41 192q-182 20 -263 161.5t-36 352.5zM281 657q-32 -158 18 -264q53 -111 176 -135 l172 817q-107 -25 -186.5 -96.5t-128.5 -173.5q-30 -59 -51 -148z" />
<glyph unicode="&#xa3;" horiz-adv-x="903" d="M14 0l15 70q187 71 280 266q28 61 39 117l39 184h-217l25 125h219l55 260q30 139 107 240.5t192 148.5q76 31 160 31q102 0 213 -47l-66 -125q-92 53 -178 53q-109 0 -192 -80q-75 -72 -111 -231l-53 -250h297l-27 -125h-297l-31 -152q-47 -218 -221 -366h651l-24 -119 h-875z" />
<glyph unicode="&#xa4;" horiz-adv-x="995" d="M119 360l160 129q-41 86 -33 174t42.5 158.5t88.5 124.5q-16 20 -53.5 65t-53.5 64l103 86l104 -131q127 76 246 76q125 0 215 -76q23 19 79.5 65t80.5 66l65 -86l-159 -129q53 -89 24 -229q-26 -120 -123 -228q11 -13 33.5 -40.5t41.5 -50t34 -38.5l-105 -86l-100 132 q-119 -76 -252 -76q-131 0 -213 76l-160 -132zM373 719q-18 -86 16 -152.5t98 -97.5q41 -20 97 -20q106 0 204 79q99 81 121 191q19 87 -15 151.5t-99 94.5q-41 20 -95 20q-113 0 -208 -80q-97 -79 -119 -186z" />
<glyph unicode="&#xa5;" horiz-adv-x="958" d="M117 319l24 119h359l41 199h-359l27 119h313q-112 332 -221 663h143l183 -561q9 -45 14 -55q17 33 43 59q68 91 211 278.5t211 278.5h137l-510 -663h320l-27 -119h-358l-41 -199h358l-24 -119h-361l-68 -319h-126l67 319h-356z" />
<glyph unicode="&#xa6;" horiz-adv-x="219" d="M-47 -463l182 858h129l-182 -858h-129zM197 688l182 858h131l-182 -858h-131z" />
<glyph unicode="&#xa7;" horiz-adv-x="675" d="M6 6l62 121q38 -23 63.5 -36t65 -24.5t77.5 -11.5q92 0 153.5 42t76.5 116q8 44 -4.5 73.5t-42.5 57.5q-30 27 -70 47q-88 48 -127 82q-43 36 -66.5 73t-23.5 89q0 47 8 94q35 161 193 248q-84 88 -58 209q20 99 83.5 166.5t158.5 99.5q65 21 137 21q112 0 226 -52 l-64 -125q-85 58 -190 58q-184 0 -218 -162q-4 -19 -4 -36.5t3 -30.5t10 -26t15 -22.5t20 -19.5t22 -17t25 -16q27 -17 106 -59q188 -95 148 -285q-36 -158 -195 -272q64 -70 39 -193q-22 -117 -133 -199q-106 -79 -254 -79q-68 0 -182 43q-15 6 -60 26zM311 733 q-17 -71 6.5 -114t79.5 -78q20 -13 113 -60q61 39 98 84.5t51 114.5q8 36 4.5 62.5t-22.5 50.5q-26 30 -61 53q-49 33 -111 63q-134 -59 -158 -176z" />
<glyph unicode="&#xa8;" horiz-adv-x="606" d="M309 1233q8 35 38 60.5t69 25.5q36 0 57 -23.5t14 -62.5q-8 -37 -38 -63.5t-68 -26.5q-36 0 -57.5 25.5t-14.5 64.5zM631 1233q8 35 37 60.5t67 25.5q37 0 60 -24t16 -62q-8 -36 -40 -63t-71 -27q-36 0 -56 25.5t-13 64.5z" />
<glyph unicode="&#xa9;" horiz-adv-x="1589" d="M193 707q65 309 325 520q265 215 567 215q300 0 476 -215q171 -212 106 -518q-64 -304 -326 -519t-567 -215q-302 0 -475 215q-170 213 -106 517zM307 707q-55 -253 90 -439q140 -180 400 -180t481 182q218 182 274 437q55 254 -90 440q-142 182 -401 182t-477 -182 q-222 -186 -277 -440zM457 682q38 180 147 309.5t268 188.5q101 37 209 37q129 0 265 -74l-72 -107q-104 64 -232 64q-157 0 -284 -107q-134 -114 -170 -288q-28 -130 16 -226t139 -139q69 -29 142 -29q116 0 254 72l30 -100q-187 -90 -319 -90q-105 0 -188.5 38.5 t-135.5 102.5q-113 140 -69 348z" />
<glyph unicode="&#xaa;" horiz-adv-x="684" d="M221 889q22 100 98.5 162.5t188.5 89.5q75 16 139 16q49 0 92 -6q29 172 -102 172q-52 0 -131 -27q-65 -22 -148 -77l-2 124q126 68 242 89q38 6 70 6q260 0 198 -283l-98 -465h-127l21 92q-116 -108 -252 -108q-100 0 -155 57.5t-34 157.5zM358 891q-10 -51 14.5 -77 t78.5 -26q139 0 239 132l27 118h-8q-1 0 -2 1t-2 1q-64 11 -121 11q-184 0 -226 -160z" />
<glyph unicode="&#xab;" horiz-adv-x="792" d="M125 537l354 350h160l-363 -350q13 -22 27.5 -43.5t26.5 -40.5q26 -43 80.5 -130t81.5 -130h-158zM428 537l358 350h160l-362 -350q40 -62 112.5 -181t100.5 -163h-158z" />
<glyph unicode="&#xac;" horiz-adv-x="980" d="M104 535l25 118h913l-108 -512h-123l84 394h-791z" />
<glyph unicode="&#xad;" horiz-adv-x="688" d="M170 535l27 124h563l-27 -124h-563z" />
<glyph unicode="&#xae;" horiz-adv-x="1589" d="M193 707q65 309 325 520q265 215 567 215q300 0 476 -215q171 -212 106 -518q-64 -304 -326 -519t-567 -215q-302 0 -475 215q-170 213 -106 517zM307 707q-55 -253 90 -439q140 -180 400 -180t481 182q218 182 274 437q55 254 -90 440q-142 182 -401 182t-477 -182 q-222 -186 -277 -440zM547 233l207 967h272q246 0 283 -156q12 -49 0 -106q-47 -217 -287 -272q17 -40 84.5 -195t101.5 -238h-145l-166 412h-135l-88 -412h-127zM784 752h168q66 0 115.5 28t79.5 74q19 28 29 68q19 86 -25 129t-150 43h-145z" />
<glyph unicode="&#xaf;" horiz-adv-x="849" d="M408 1651l26 125h858l-26 -125h-858z" />
<glyph unicode="&#xb0;" horiz-adv-x="600" d="M279 1057q-24 104 43 203q61 95 167 139q50 20 105 20q83 0 138.5 -43.5t70.5 -115.5q22 -99 -41 -203q-64 -100 -168 -142q-50 -20 -107 -20q-82 0 -137 45t-71 117zM395 1100q8 -41 37.5 -66.5t75.5 -25.5q94 0 151 92q23 36 27 80.5t-20 83.5q-31 43 -93 43 q-89 0 -151 -90q-37 -60 -27 -117z" />
<glyph unicode="&#xb1;" horiz-adv-x="917" d="M-4 0l24 119h912l-25 -119h-911zM125 608l25 121h397l84 395h119l-84 -395h395l-25 -121h-397l-84 -395h-119l84 395h-395z" />
<glyph unicode="&#xb2;" horiz-adv-x="673" d="M221 860l25 123l284 231q127 101 179 166q40 51 53 111q27 129 -105 129q-96 0 -258 -119l33 152q64 39 133 63q61 21 123 21q112 0 169.5 -60.5t33.5 -173.5q-16 -77 -55.5 -132.5t-108.5 -121.5q-43 -41 -131 -112l-186 -152h374l-26 -125h-537z" />
<glyph unicode="&#xb3;" horiz-adv-x="673" d="M223 889l31 139q104 -76 190 -76q78 0 130 40.5t67 107.5q15 70 -29 105.5t-147 35.5h-88l24 117h78q189 0 219 145q24 113 -104 113q-63 0 -197 -64l27 131q114 50 213 50q103 0 156.5 -57t31.5 -160q-30 -146 -155 -207q57 -26 83 -79.5t9 -129.5q-20 -89 -78 -152.5 t-141 -91.5q-50 -18 -125 -18q-115 0 -195 51z" />
<glyph unicode="&#xb4;" horiz-adv-x="358" d="M219 1143l330 354h147l-344 -354h-133z" />
<glyph unicode="&#xb5;" horiz-adv-x="886" d="M-20 -377l294 1401h127l-118 -567q-62 -282 67 -342q43 -21 111 -21q126 0 229 99q97 94 133 253l121 578h127l-217 -1024h-127l29 133q-143 -158 -336 -158q-151 0 -221 95l-95 -447h-124z" />
<glyph unicode="&#xb6;" horiz-adv-x="821" d="M258 0l184 870q-100 8 -152.5 83.5t-29.5 189.5q20 93 77.5 159t141.5 97q58 20 107 20h495l-26 -123h-125l-277 -1296h-121l277 1296h-154l-274 -1296h-123z" />
<glyph unicode="&#xb7;" horiz-adv-x="260" d="M180 700q8 38 41 66.5t76 28.5q39 0 63 -27.5t15 -67.5q-8 -40 -41.5 -69t-77.5 -29q-40 0 -62 28.5t-14 69.5z" />
<glyph unicode="&#xb8;" horiz-adv-x="413" d="M-45 -412l22 111q60 -8 101 -8q132 0 147 67q15 66 -106 66q-24 0 -82 -8l47 223h109l-25 -113q106 -3 151.5 -44t30.5 -118q-40 -182 -303 -182q-33 0 -92 6z" />
<glyph unicode="&#xb9;" horiz-adv-x="673" d="M217 860l25 119h188l131 610q-32 -10 -109 -33.5t-108 -33.5l27 125l344 102l-164 -770h184l-26 -119h-492z" />
<glyph unicode="&#xba;" horiz-adv-x="796" d="M260 1053q28 131 102.5 223t188.5 135q71 27 151 27q163 0 234.5 -104.5t34.5 -278.5q-28 -126 -102 -218.5t-183 -136.5q-70 -30 -154 -30q-159 0 -234 106.5t-38 276.5zM382 956.5q2 -59.5 28 -98.5q49 -72 149 -72q116 0 186 75.5t95 195.5q27 123 -15 194.5 t-149 71.5q-160 0 -246 -160q-22 -42 -36 -94.5t-12 -112z" />
<glyph unicode="&#xbb;" horiz-adv-x="796" d="M61 193l365 352q-32 52 -217 342h162l209 -342l-355 -352h-164zM371 193l360 352q-88 146 -215 342h160l211 -344l-359 -350h-157z" />
<glyph unicode="&#xbc;" horiz-adv-x="1435" d="M293 1223l26 125l345 102l-189 -889h-121l156 729q-31 -10 -108 -33.5t-109 -33.5zM356 0l1024 1419h138l-1151 -1419h-11zM817 211l19 88l497 557h117l-115 -532h107l-25 -113h-108q-16 -33 -55 -105.5t-56 -105.5h-47l43 211h-377zM993 324h226l71 340q-10 -15 -12 -17 z" />
<glyph unicode="&#xbd;" horiz-adv-x="1509" d="M231 0l1153 1419h138l-1153 -1419h-138zM293 1223l26 125l347 102l-191 -889h-121l156 729q-131 -40 -217 -67zM911 0l27 123l285 231q130 106 176 164q40 51 53 113q27 127 -104 127q-102 0 -258 -117l32 152q144 84 256 84q110 0 168.5 -62t34.5 -174q-19 -84 -76 -156 q-69 -91 -217 -209l-188 -151h375l-27 -125h-537z" />
<glyph unicode="&#xbe;" horiz-adv-x="1462" d="M156 590l30 139q104 -76 191 -76q78 0 129.5 40t66.5 108q15 70 -29 105.5t-147 35.5h-88l25 117h78q189 0 219 145q24 113 -105 113q-62 0 -196 -64l26 131q114 50 213 50q103 0 157 -57t32 -160q-30 -146 -156 -207q57 -26 83 -79.5t9 -129.5q-20 -89 -78 -152.5 t-141 -91.5q-50 -18 -125 -18q-114 0 -194 51zM252 0l1153 1419h137l-1153 -1419h-137zM840 211l18 88l500 557h117l-115 -532h106l-24 -113h-111q-17 -33 -54.5 -105.5t-53.5 -105.5h-49l45 211h-379zM1016 324h225l74 340q-2 -3 -5 -7t-4.5 -6.5t-2.5 -3.5z" />
<glyph unicode="&#xbf;" horiz-adv-x="718" d="M-16 -94q12 57 36 106t63 91.5t70.5 69.5t82.5 67q116 90 157 135q62 65 62 190q0 53 -2 76h116q15 -64 7.5 -121t-25.5 -99t-51 -82t-68.5 -70t-77.5 -64t-78.5 -63t-71.5 -67t-57 -77q-52 -92 -34 -170q13 -59 60.5 -90t121.5 -31q123 0 248 74q27 15 63 47l56 -96 q-100 -76 -186 -113t-210 -37q-152 0 -233 84.5t-49 239.5zM487 944q8 41 41 68.5t78 27.5q40 0 62.5 -27.5t13.5 -68.5q-8 -39 -41 -67.5t-76 -28.5q-42 0 -64.5 27t-13.5 69z" />
<glyph unicode="&#xc0;" d="M6 0l846 1434h119l231 -1434h-149l-68 434h-577q-91 -154 -252 -434h-150zM481 561h484l-97 619h2q-1 8 -3 23.5t-3 23.5q-152 -267 -383 -666zM813 1907h150l176 -355h-133z" />
<glyph unicode="&#xc1;" d="M6 0l846 1434h119l231 -1434h-149l-68 434h-577q-91 -154 -252 -434h-150zM481 561h484l-97 619h2q-1 8 -3 23.5t-3 23.5q-152 -267 -383 -666zM737 1552l330 355h147l-344 -355h-133z" />
<glyph unicode="&#xc2;" d="M6 0l846 1434h119l231 -1434h-149l-68 434h-577q-91 -154 -252 -434h-150zM481 561h484l-97 619h2q-1 8 -3 23.5t-3 23.5q-152 -267 -383 -666zM668 1552l315 363h64l157 -363h-129l-92 215q-66 -72 -190 -215h-125z" />
<glyph unicode="&#xc3;" d="M6 0l846 1434h119l231 -1434h-149l-68 434h-577q-91 -154 -252 -434h-150zM481 561h484l-97 619h2q-1 8 -3 23.5t-3 23.5q-152 -267 -383 -666zM618 1552q18 81 59.5 142.5t102.5 91.5q40 18 80 18q79 0 152 -73q36 -36 45 -41q23 -13 43 -13q34 0 59 35q28 39 43 107 h111q-18 -84 -59.5 -146t-104.5 -90q-41 -18 -82 -18q-68 0 -141 77q-45 48 -92 48q-79 0 -109 -138h-107z" />
<glyph unicode="&#xc4;" d="M6 0l846 1434h119l231 -1434h-149l-68 434h-577q-91 -154 -252 -434h-150zM481 561h484l-97 619h2q-1 8 -3 23.5t-3 23.5q-152 -267 -383 -666zM705 1642q8 35 38 61t68 26q36 0 57.5 -24t14.5 -63q-8 -37 -38 -63.5t-69 -26.5q-36 0 -57 25.5t-14 64.5zM1026 1642 q8 35 37 61t67 26q37 0 60 -24.5t16 -62.5q-8 -36 -39.5 -63t-70.5 -27q-36 0 -56.5 25.5t-13.5 64.5z" />
<glyph unicode="&#xc5;" horiz-adv-x="1228" d="M8 0l793 1343q-111 48 -84 185q13 66 59 113.5t111 70.5q41 14 88 14q69 0 113.5 -30t58.5 -86q9 -37 0 -82q-27 -128 -162 -182q114 -716 217 -1346h-149l-68 434h-577q-91 -154 -252 -434h-148zM483 561h482l-95 619q-1 8 -3 23.5t-3 23.5q-379 -663 -381 -666z M827 1528q-9 -43 16 -68.5t68 -25.5q46 0 81 27t44 67q10 45 -14.5 69.5t-71.5 24.5q-50 0 -82 -25t-41 -69z" />
<glyph unicode="&#xc7;" horiz-adv-x="1191" d="M188 702q53 254 195 435.5t358 265.5q135 53 301 53q223 0 377 -137l-96 -113q-125 125 -326 125q-235 0 -422 -172q-186 -169 -245 -446q-58 -274 49 -443q109 -168 346 -168q200 0 371 113l43 -109q-206 -131 -439 -131q-151 0 -263.5 53.5t-178.5 149.5 q-139 203 -70 524zM326 -412l22 111q60 -8 101 -8q132 0 147 67q8 32 -19.5 49t-87.5 17q-23 0 -81 -8l47 223h108l-24 -113q106 -3 151.5 -44t30.5 -118q-40 -182 -303 -182q-33 0 -92 6z" />
<glyph unicode="&#xc8;" horiz-adv-x="784" d="M63 0l304 1434h692l-29 -127h-555l-110 -521h516l-27 -127h-516l-115 -532h588l-25 -127h-723zM592 1907h149l177 -355h-134z" />
<glyph unicode="&#xc9;" horiz-adv-x="784" d="M63 0l304 1434h692l-29 -127h-555l-110 -521h516l-27 -127h-516l-115 -532h588l-25 -127h-723zM518 1552l330 355h147l-344 -355h-133z" />
<glyph unicode="&#xca;" horiz-adv-x="784" d="M63 0l304 1434h692l-29 -127h-555l-110 -521h516l-27 -127h-516l-115 -532h588l-25 -127h-723zM449 1552l315 363h63l158 -363h-129l-92 215q-94 -104 -191 -215h-124z" />
<glyph unicode="&#xcb;" horiz-adv-x="784" d="M63 0l304 1434h692l-29 -127h-555l-110 -521h516l-27 -127h-516l-115 -532h588l-25 -127h-723zM483 1642q8 35 38.5 61t68.5 26q36 0 57.5 -24t14.5 -63q-8 -37 -38 -63.5t-69 -26.5q-36 0 -57.5 25.5t-14.5 64.5zM805 1642q8 35 37 61t67 26q37 0 60 -24.5t16 -62.5 q-8 -36 -40 -63t-71 -27q-36 0 -56 25.5t-13 64.5z" />
<glyph unicode="&#xcc;" horiz-adv-x="462" d="M57 0l303 1434h136l-303 -1434h-136zM258 1845h150l176 -354h-133z" />
<glyph unicode="&#xcd;" horiz-adv-x="462" d="M57 0l303 1434h136l-303 -1434h-136zM326 1491l329 354h148l-344 -354h-133z" />
<glyph unicode="&#xce;" horiz-adv-x="462" d="M57 0l303 1434h136l-303 -1434h-136zM180 1491l316 362h63l158 -362h-129l-92 215q-94 -104 -191 -215h-125z" />
<glyph unicode="&#xcf;" horiz-adv-x="462" d="M57 0l303 1434h136l-303 -1434h-136zM211 1581q8 35 38 60.5t68 25.5q37 0 58 -23.5t14 -62.5q-8 -37 -38 -63.5t-68 -26.5q-36 0 -57.5 25.5t-14.5 64.5zM532 1581q8 35 37.5 60.5t67.5 25.5q37 0 60 -24t16 -62q-8 -36 -40 -63t-71 -27q-36 0 -56.5 25.5t-13.5 64.5z " />
<glyph unicode="&#xd0;" horiz-adv-x="1329" d="M170 649l27 125h145l139 660h371q350 0 502.5 -173.5t77.5 -525.5q-34 -165 -115.5 -300.5t-198.5 -231.5q-244 -203 -592 -203h-348l137 649h-145zM340 127h199q457 0 657 346q67 119 96 260q123 574 -483 574h-217l-115 -533h393l-26 -125h-391z" />
<glyph unicode="&#xd1;" horiz-adv-x="1234" d="M61 0l306 1434h102l592 -1127q2 -5 8 -16t8 -19q1 7 3 14.5t3 12.5q1 4 2 12.5t2 12.5l236 1110h135l-303 -1434h-96l-596 1135q-17 29 -19 34l-247 -1169h-136zM623 1552q39 174 161 234q40 18 80 18q79 0 152 -73q36 -36 45 -41q23 -13 43 -13q34 0 59 35q28 39 43 107 h111q-18 -84 -59.5 -146t-104.5 -90q-41 -18 -82 -18q-68 0 -141 77q-45 48 -92 48q-79 0 -109 -138h-106z" />
<glyph unicode="&#xd2;" horiz-adv-x="1445" d="M190 702q53 254 195 435.5t358 265.5q135 53 301 53q145 0 254.5 -52.5t174.5 -146.5q136 -199 67 -520q-75 -352 -301 -557t-537 -205q-151 0 -263.5 53.5t-178.5 149.5q-139 203 -70 524zM332 713q-59 -278 49 -443q112 -168 346 -168q250 0 430 166q182 166 244 455 q59 281 -49 446q-110 162 -353 162q-234 0 -421 -172q-187 -170 -246 -446zM924 1907h149l176 -355h-133z" />
<glyph unicode="&#xd3;" horiz-adv-x="1445" d="M190 702q53 254 195 435.5t358 265.5q135 53 301 53q145 0 254.5 -52.5t174.5 -146.5q136 -199 67 -520q-75 -352 -301 -557t-537 -205q-151 0 -263.5 53.5t-178.5 149.5q-139 203 -70 524zM332 713q-59 -278 49 -443q112 -168 346 -168q250 0 430 166q182 166 244 455 q59 281 -49 446q-110 162 -353 162q-234 0 -421 -172q-187 -170 -246 -446zM848 1552l330 355h147l-344 -355h-133z" />
<glyph unicode="&#xd4;" horiz-adv-x="1445" d="M190 702q53 254 195 435.5t358 265.5q135 53 301 53q145 0 254.5 -52.5t174.5 -146.5q136 -199 67 -520q-75 -352 -301 -557t-537 -205q-151 0 -263.5 53.5t-178.5 149.5q-139 203 -70 524zM332 713q-59 -278 49 -443q112 -168 346 -168q250 0 430 166q182 166 244 455 q59 281 -49 446q-110 162 -353 162q-234 0 -421 -172q-187 -170 -246 -446zM778 1552l316 363h63l158 -363h-129l-92 215q-94 -104 -191 -215h-125z" />
<glyph unicode="&#xd5;" horiz-adv-x="1445" d="M190 702q53 254 195 435.5t358 265.5q135 53 301 53q145 0 254.5 -52.5t174.5 -146.5q136 -199 67 -520q-75 -352 -301 -557t-537 -205q-151 0 -263.5 53.5t-178.5 149.5q-139 203 -70 524zM332 713q-59 -278 49 -443q112 -168 346 -168q250 0 430 166q182 166 244 455 q59 281 -49 446q-110 162 -353 162q-234 0 -421 -172q-187 -170 -246 -446zM727 1552q18 81 59.5 142.5t102.5 91.5q41 18 80 18q78 0 151 -73q36 -36 45 -41q23 -13 43 -13q35 0 60 35q28 39 43 107h110q-18 -84 -59.5 -146t-104.5 -90q-41 -18 -81 -18q-69 0 -142 77 q-45 48 -92 48q-78 0 -108 -138h-107z" />
<glyph unicode="&#xd6;" horiz-adv-x="1445" d="M190 702q53 254 195 435.5t358 265.5q135 53 301 53q145 0 254.5 -52.5t174.5 -146.5q136 -199 67 -520q-75 -352 -301 -557t-537 -205q-151 0 -263.5 53.5t-178.5 149.5q-139 203 -70 524zM332 713q-59 -278 49 -443q112 -168 346 -168q250 0 430 166q182 166 244 455 q59 281 -49 446q-110 162 -353 162q-234 0 -421 -172q-187 -170 -246 -446zM815 1642q8 35 38.5 61t68.5 26q36 0 57 -24t14 -63q-8 -37 -38 -63.5t-68 -26.5q-36 0 -57.5 25.5t-14.5 64.5zM1137 1642q8 35 37 61t67 26q37 0 60 -24.5t16 -62.5q-8 -36 -40 -63t-71 -27 q-36 0 -56 25.5t-13 64.5z" />
<glyph unicode="&#xd7;" horiz-adv-x="909" d="M98 270l391 324q-51 63 -253 321l102 84l252 -321q63 51 195.5 160.5t195.5 160.5l66 -84l-390 -321l252 -324l-102 -82l-252 324q-62 -51 -194.5 -162t-194.5 -162z" />
<glyph unicode="&#xd8;" horiz-adv-x="1468" d="M33 12l223 211q-104 200 -43 479q53 254 195 435.5t358 265.5q135 53 301 53q223 0 358 -119q89 86 172 162l76 -76l-174 -166q134 -201 66 -520q-74 -348 -305 -557q-226 -205 -535 -205q-264 0 -410 158l-204 -194zM354 713q-48 -230 15 -381l952 903q-113 96 -297 96 q-237 0 -424 -172q-187 -170 -246 -446zM426 238q109 -136 324 -136q252 0 432 166q178 163 241 455q56 261 -34 430z" />
<glyph unicode="&#xd9;" horiz-adv-x="1325" d="M170 555l184 879h135l-184 -865q-99 -467 277 -467q361 0 460 453l187 879h133l-182 -856q-129 -603 -643 -603q-490 0 -367 580zM723 1845h149l177 -354h-134z" />
<glyph unicode="&#xda;" horiz-adv-x="1325" d="M170 555l184 879h135l-184 -865q-99 -467 277 -467q361 0 460 453l187 879h133l-182 -856q-129 -603 -643 -603q-490 0 -367 580zM729 1489l330 354h147l-344 -354h-133z" />
<glyph unicode="&#xdb;" horiz-adv-x="1325" d="M170 555l184 879h135l-184 -865q-99 -467 277 -467q361 0 460 453l187 879h133l-182 -856q-129 -603 -643 -603q-490 0 -367 580zM643 1491l315 362h64l158 -362h-129l-93 215q-66 -72 -190 -215h-125z" />
<glyph unicode="&#xdc;" horiz-adv-x="1325" d="M170 555l184 879h135l-184 -865q-99 -467 277 -467q361 0 460 453l187 879h133l-182 -856q-129 -603 -643 -603q-490 0 -367 580zM668 1581q8 35 38 60.5t68 25.5q37 0 58 -23.5t14 -62.5q-8 -37 -38 -63.5t-69 -26.5q-36 0 -57 25.5t-14 64.5zM989 1581q8 35 37.5 60.5 t67.5 25.5q37 0 59.5 -24t15.5 -62q-8 -36 -39.5 -63t-70.5 -27q-36 0 -56.5 25.5t-13.5 64.5z" />
<glyph unicode="&#xdd;" horiz-adv-x="1105" d="M301 1434h152l186 -682q1 -7 6.5 -30t7.5 -36q63 88 250 347.5t287 400.5h147l-653 -889l-115 -545h-133l115 543q-41 147 -125 445.5t-125 445.5zM604 1522l330 354h147l-344 -354h-133z" />
<glyph unicode="&#xde;" horiz-adv-x="874" d="M55 0l305 1434h136l-50 -232h222q460 0 374 -411q-33 -159 -134 -269t-251 -160q-95 -32 -221 -32h-176l-70 -330h-135zM287 455h180q182 0 291 83.5t143 239.5q64 297 -278 297h-203z" />
<glyph unicode="&#xdf;" horiz-adv-x="919" d="M53 2l217 1020q56 266 187 389q108 102 295 102q150 0 224.5 -92.5t41.5 -249.5q-52 -245 -295 -360q129 -47 197.5 -154.5t35.5 -265.5q-29 -136 -113.5 -235.5t-207.5 -147.5q-91 -33 -172 -33q-57 0 -152 37q-19 7 -35 19l70 96q89 -33 139 -33q191 0 293 174 q31 52 47 119t0 129q-45 180 -325 229l22 109q308 67 361 305q23 109 -20 172.5t-144 63.5q-106 0 -165.5 -49.5t-100.5 -145.5q-38 -94 -58 -190l-215 -1008h-127z" />
<glyph unicode="&#xe0;" horiz-adv-x="1011" d="M88 156q-11 51 4 116q39 170 180 254t359 84q97 0 174 -12q19 97 17.5 170.5t-43 117.5t-124.5 44q-166 0 -331 -125l-64 84q189 160 430 160q168 0 232 -101t24 -289l-139 -659h-127l22 113q-108 -90 -258 -125q-54 -13 -94 -13q-107 0 -176 47t-86 134zM223 203 q10 -53 53.5 -81t110.5 -28q128 0 231 70v-2q48 31 76 59q32 31 39 49l45 213q-67 15 -160 15q-232 0 -339 -113q-30 -32 -48 -81t-8 -101zM485 1497h150l176 -354h-133z" />
<glyph unicode="&#xe1;" horiz-adv-x="1011" d="M88 156q-11 51 4 116q39 170 180 254t359 84q97 0 174 -12q19 97 17.5 170.5t-43 117.5t-124.5 44q-166 0 -331 -125l-64 84q189 160 430 160q168 0 232 -101t24 -289l-139 -659h-127l22 113q-108 -90 -258 -125q-54 -13 -94 -13q-107 0 -176 47t-86 134zM223 203 q10 -53 53.5 -81t110.5 -28q128 0 231 70v-2q48 31 76 59q32 31 39 49l45 213q-67 15 -160 15q-232 0 -339 -113q-30 -32 -48 -81t-8 -101zM444 1143l330 354h148l-344 -354h-134z" />
<glyph unicode="&#xe2;" horiz-adv-x="1011" d="M88 156q-11 51 4 116q39 170 180 254t359 84q97 0 174 -12q19 97 17.5 170.5t-43 117.5t-124.5 44q-166 0 -331 -125l-64 84q189 160 430 160q168 0 232 -101t24 -289l-139 -659h-127l22 113q-108 -90 -258 -125q-54 -13 -94 -13q-107 0 -176 47t-86 134zM223 203 q10 -53 53.5 -81t110.5 -28q128 0 231 70v-2q48 31 76 59q32 31 39 49l45 213q-67 15 -160 15q-232 0 -339 -113q-30 -32 -48 -81t-8 -101zM379 1143l315 362h64l157 -362h-129l-92 215q-66 -72 -190 -215h-125z" />
<glyph unicode="&#xe3;" horiz-adv-x="1011" d="M88 156q-11 51 4 116q39 170 180 254t359 84q97 0 174 -12q19 97 17.5 170.5t-43 117.5t-124.5 44q-166 0 -331 -125l-64 84q189 160 430 160q168 0 232 -101t24 -289l-139 -659h-127l22 113q-108 -90 -258 -125q-54 -13 -94 -13q-107 0 -176 47t-86 134zM223 203 q10 -53 53.5 -81t110.5 -28q128 0 231 70v-2q48 31 76 59q32 31 39 49l45 213q-67 15 -160 15q-232 0 -339 -113q-30 -32 -48 -81t-8 -101zM442 1143q18 80 59.5 141.5t102.5 91.5q43 19 80 19q78 0 152 -74q36 -36 45 -41q21 -12 43 -12q34 0 59 35q28 39 43 106h111 q-39 -180 -164 -235q-43 -19 -82 -19q-67 0 -141 78q-44 47 -93 47q-78 0 -108 -137h-107z" />
<glyph unicode="&#xe4;" horiz-adv-x="1011" d="M88 156q-11 51 4 116q39 170 180 254t359 84q97 0 174 -12q19 97 17.5 170.5t-43 117.5t-124.5 44q-166 0 -331 -125l-64 84q189 160 430 160q168 0 232 -101t24 -289l-139 -659h-127l22 113q-108 -90 -258 -125q-54 -13 -94 -13q-107 0 -176 47t-86 134zM223 203 q10 -53 53.5 -81t110.5 -28q128 0 231 70v-2q48 31 76 59q32 31 39 49l45 213q-67 15 -160 15q-232 0 -339 -113q-30 -32 -48 -81t-8 -101zM399 1233q8 35 38 60.5t69 25.5q37 0 58 -23.5t14 -62.5q-8 -37 -38 -63.5t-69 -26.5q-36 0 -57.5 25.5t-14.5 64.5zM721 1233 q8 35 37 60.5t67 25.5q37 0 60 -24t16 -62q-8 -36 -39.5 -63t-70.5 -27q-36 0 -56.5 25.5t-13.5 64.5z" />
<glyph unicode="&#xe5;" horiz-adv-x="847" d="M72 156q-12 57 2 118q37 117 119.5 198t199.5 116q74 22 144 22q142 0 239 -65l25 117q21 127 -17.5 197.5t-144.5 70.5q-169 0 -334 -125l-61 84q189 160 428 160q168 0 232 -101t24 -289l-140 -659h-126l22 113q-108 -90 -258 -125q-54 -13 -92 -13q-107 0 -176 47 t-86 134zM205 203q10 -53 53.5 -81t110.5 -28q128 0 231 70v-2q48 29 78 59q31 31 39 49l31 152q-103 76 -226 76q-91 0 -162.5 -36t-113.5 -95q-57 -77 -41 -164zM563 1339q13 64 58 112.5t108 70.5q41 14 88 14q90 0 140 -52.5t30 -144.5q-13 -65 -57.5 -112t-108.5 -70 q-41 -14 -88 -14q-91 0 -140 51.5t-30 144.5zM674 1339q-9 -43 14.5 -68.5t67.5 -25.5q46 0 81 27t44 67q10 44 -14.5 69.5t-69.5 25.5q-48 0 -81 -26.5t-42 -68.5z" />
<glyph unicode="&#xe7;" horiz-adv-x="907" d="M145 506q39 185 141.5 316t260.5 190q98 37 211 37q163 0 272 -95l-90 -100q-85 76 -213 76q-161 0 -287 -113q-121 -110 -164 -313q-39 -180 31.5 -295t239.5 -115q132 0 254 84l39 -104q-155 -99 -322 -99q-222 0 -323 147t-50 384zM301 -412l23 111q60 -8 100 -8 q132 0 147 67q15 66 -106 66q-24 0 -82 -8l47 223h109l-25 -113q106 -3 151.5 -44t30.5 -118q-40 -182 -303 -182q-33 0 -92 6z" />
<glyph unicode="&#xe8;" horiz-adv-x="1032" d="M127.5 346q1.5 81 19.5 172q48 221 209 375q167 156 365 156q144 0 223 -76.5t88 -216.5q6 -93 -18 -207l-13 -60h-729q-17 -113 -1.5 -200.5t80 -141t169.5 -53.5q158 0 326 117l39 -102q-218 -134 -410 -134q-87 0 -154 27.5t-108 77t-64 117.5t-21.5 149zM303 608h592 q23 149 -27 235.5t-176 86.5q-123 0 -227 -84q-103 -83 -162 -238zM537 1497h149l176 -354h-133z" />
<glyph unicode="&#xe9;" horiz-adv-x="1032" d="M127.5 346q1.5 81 19.5 172q48 221 209 375q167 156 365 156q144 0 223 -76.5t88 -216.5q6 -93 -18 -207l-13 -60h-729q-17 -113 -1.5 -200.5t80 -141t169.5 -53.5q158 0 326 117l39 -102q-218 -134 -410 -134q-87 0 -154 27.5t-108 77t-64 117.5t-21.5 149zM303 608h592 q23 149 -27 235.5t-176 86.5q-123 0 -227 -84q-103 -83 -162 -238zM481 1143l330 354h147l-344 -354h-133z" />
<glyph unicode="&#xea;" horiz-adv-x="1032" d="M127.5 346q1.5 81 19.5 172q48 221 209 375q167 156 365 156q144 0 223 -76.5t88 -216.5q6 -93 -18 -207l-13 -60h-729q-17 -113 -1.5 -200.5t80 -141t169.5 -53.5q158 0 326 117l39 -102q-218 -134 -410 -134q-87 0 -154 27.5t-108 77t-64 117.5t-21.5 149zM303 608h592 q23 149 -27 235.5t-176 86.5q-123 0 -227 -84q-103 -83 -162 -238zM414 1143l315 362h64l157 -362h-129l-92 215q-66 -72 -190 -215h-125z" />
<glyph unicode="&#xeb;" horiz-adv-x="1032" d="M127.5 346q1.5 81 19.5 172q48 221 209 375q167 156 365 156q144 0 223 -76.5t88 -216.5q6 -93 -18 -207l-13 -60h-729q-17 -113 -1.5 -200.5t80 -141t169.5 -53.5q158 0 326 117l39 -102q-218 -134 -410 -134q-87 0 -154 27.5t-108 77t-64 117.5t-21.5 149zM303 608h592 q23 149 -27 235.5t-176 86.5q-123 0 -227 -84q-103 -83 -162 -238zM436 1233q8 35 38 60.5t69 25.5q36 0 57 -23.5t14 -62.5q-8 -37 -38 -63.5t-68 -26.5q-36 0 -57.5 25.5t-14.5 64.5zM758 1233q8 35 37 60.5t67 25.5q37 0 60 -24t16 -62q-8 -36 -40 -63t-71 -27 q-36 0 -56 25.5t-13 64.5z" />
<glyph unicode="&#xec;" horiz-adv-x="378" d="M203 0l217 1024h127l-217 -1024h-127zM285 1497h147l178 -354h-135z" />
<glyph unicode="&#xed;" horiz-adv-x="362" d="M78 0l217 1024h127l-217 -1024h-127zM104 1143l328 354h150l-344 -354h-134z" />
<glyph unicode="&#xee;" horiz-adv-x="507" d="M123 1143l313 362h66l160 -362h-130l-96 215q-9 -9 -188 -215h-125zM182 0l217 1024h127l-217 -1024h-127z" />
<glyph unicode="&#xef;" horiz-adv-x="495" d="M152 1233q8 35 38 60.5t68 25.5q37 0 58 -23.5t14 -62.5q-8 -36 -39 -63t-70 -27q-37 0 -56.5 25.5t-12.5 64.5zM176 0l217 1024h127l-217 -1024h-127zM473 1233q8 35 37.5 60.5t67.5 25.5q37 0 58.5 -24t14.5 -62q-8 -36 -38.5 -63t-69.5 -27q-36 0 -56.5 25.5 t-13.5 64.5z" />
<glyph unicode="&#xf0;" horiz-adv-x="993" d="M119 289q-10 111 18.5 228.5t77.5 207.5q116 206 301 283q96 41 201 41q106 0 174 -45q-49 113 -117 202q-50 -23 -160.5 -72.5t-160.5 -72.5l-31 100l285 125q-79 81 -226 209h209q73 -57 148 -145q142 63 325 145l31 -102l-293 -129q112 -156 152 -361q29 -175 5 -331 t-87 -275q-106 -201 -293 -281q-93 -41 -199 -41q-163 0 -254.5 81.5t-105.5 232.5zM264 504q-41 -189 25 -299q67 -111 219 -111q149 0 260 115q108 111 150 303q88 418 -226 418q-151 0 -270 -119q-116 -116 -158 -307z" />
<glyph unicode="&#xf1;" horiz-adv-x="1095" d="M57 0l217 1024h127l-26 -123q77 74 155 111t162 37q103 0 169 -60.5t87 -159.5q14 -69 -8 -176l-137 -653h-127l131 618q65 312 -164 312q-96 -10 -166 -57.5t-135 -129.5l-158 -743h-127zM514 1143q18 80 59.5 141.5t102.5 91.5q43 19 80 19q77 0 151 -74q36 -36 45 -41 q21 -12 43 -12q35 0 60 35q28 39 43 106h110q-39 -180 -164 -235q-43 -19 -81 -19q-68 0 -142 78q-44 47 -92 47q-78 0 -108 -137h-107z" />
<glyph unicode="&#xf2;" horiz-adv-x="1148" d="M147 506q39 185 141.5 316t260.5 190q98 37 209 37q164 0 261 -82t116 -232q13 -109 -16.5 -230.5t-78.5 -209.5q-112 -200 -309 -279q-100 -41 -211 -41q-222 0 -323 147t-50 384zM279 504q-39 -180 31 -295t239 -115q255 0 379 242q36 68 59 176q42 198 -21.5 308 t-236.5 110q-161 0 -287 -113q-120 -108 -163 -313zM559 1497h150l176 -354h-133z" />
<glyph unicode="&#xf3;" horiz-adv-x="1148" d="M147 506q39 185 141.5 316t260.5 190q98 37 209 37q164 0 261 -82t116 -232q13 -109 -16.5 -230.5t-78.5 -209.5q-112 -200 -309 -279q-100 -41 -211 -41q-222 0 -323 147t-50 384zM279 504q-39 -180 31 -295t239 -115q255 0 379 242q36 68 59 176q42 198 -21.5 308 t-236.5 110q-161 0 -287 -113q-120 -108 -163 -313zM532 1143l330 354h148l-344 -354h-134z" />
<glyph unicode="&#xf4;" horiz-adv-x="1148" d="M147 506q39 185 141.5 316t260.5 190q98 37 209 37q164 0 261 -82t116 -232q13 -109 -16.5 -230.5t-78.5 -209.5q-112 -200 -309 -279q-100 -41 -211 -41q-222 0 -323 147t-50 384zM279 504q-39 -180 31 -295t239 -115q255 0 379 242q36 68 59 176q42 198 -21.5 308 t-236.5 110q-161 0 -287 -113q-120 -108 -163 -313zM457 1143l315 362h64l157 -362h-129l-92 215q-66 -72 -190 -215h-125z" />
<glyph unicode="&#xf5;" horiz-adv-x="1148" d="M147 506q39 185 141.5 316t260.5 190q98 37 209 37q164 0 261 -82t116 -232q13 -109 -16.5 -230.5t-78.5 -209.5q-112 -200 -309 -279q-100 -41 -211 -41q-222 0 -323 147t-50 384zM279 504q-39 -180 31 -295t239 -115q255 0 379 242q36 68 59 176q42 198 -21.5 308 t-236.5 110q-161 0 -287 -113q-120 -108 -163 -313zM530 1143q18 80 59.5 141.5t102.5 91.5q43 19 80 19q78 0 152 -74q36 -36 45 -41q21 -12 43 -12q34 0 59 35q28 39 43 106h111q-39 -180 -164 -235q-43 -19 -82 -19q-67 0 -141 78q-44 47 -93 47q-78 0 -108 -137h-107z " />
<glyph unicode="&#xf6;" horiz-adv-x="1148" d="M147 506q39 185 141.5 316t260.5 190q98 37 209 37q164 0 261 -82t116 -232q13 -109 -16.5 -230.5t-78.5 -209.5q-112 -200 -309 -279q-100 -41 -211 -41q-222 0 -323 147t-50 384zM279 504q-39 -180 31 -295t239 -115q255 0 379 242q36 68 59 176q42 198 -21.5 308 t-236.5 110q-161 0 -287 -113q-120 -108 -163 -313zM483 1233q8 35 38 60.5t69 25.5q37 0 58 -23.5t14 -62.5q-8 -37 -38 -63.5t-69 -26.5q-36 0 -57.5 25.5t-14.5 64.5zM805 1233q8 35 37 60.5t67 25.5q37 0 60 -24t16 -62q-8 -36 -40 -63t-71 -27q-36 0 -56 25.5t-13 64.5 z" />
<glyph unicode="&#xf7;" horiz-adv-x="917" d="M109 535l24 118h911l-24 -118h-911zM414 262q8 37 40 64.5t72 27.5q38 0 58.5 -26t13.5 -66q-8 -37 -39.5 -65.5t-71.5 -28.5q-39 0 -60.5 26t-12.5 68zM555 928q8 37 40.5 64.5t72.5 27.5q38 0 59 -26t14 -66q-8 -37 -40 -65.5t-72 -28.5q-39 0 -61 26t-13 68z" />
<glyph unicode="&#xf8;" horiz-adv-x="1191" d="M20 -18l205 184q-71 142 -28 340q39 185 141 316t260 190q98 37 211 37q188 0 287 -105q36 32 109.5 99.5t92.5 84.5l72 -79l-217 -195q60 -132 16 -344q-37 -178 -137 -305.5t-252 -188.5q-100 -41 -211 -41q-174 0 -282 103q-29 -27 -99.5 -89t-99.5 -89zM328 504 q-30 -143 6 -242l657 590q-72 78 -211 78q-162 0 -288 -113q-121 -110 -164 -313zM389 170q73 -76 209 -76q255 0 379 242q28 55 48 122t28.5 149t-11.5 149z" />
<glyph unicode="&#xf9;" horiz-adv-x="1095" d="M141 434l125 590h129l-121 -567q-20 -90 -20 -164q0 -199 201 -199q83 0 168 51q77 46 159 148l156 731h127l-217 -1024h-127l29 137q-77 -74 -162 -119q-82 -43 -160 -43q-199 0 -267 114.5t-20 344.5zM524 1497h150l176 -354h-133z" />
<glyph unicode="&#xfa;" horiz-adv-x="1095" d="M141 434l125 590h129l-121 -567q-20 -90 -20 -164q0 -199 201 -199q83 0 168 51q77 46 159 148l156 731h127l-217 -1024h-127l29 137q-77 -74 -162 -119q-82 -43 -160 -43q-199 0 -267 114.5t-20 344.5zM535 1143l329 354h148l-344 -354h-133z" />
<glyph unicode="&#xfb;" horiz-adv-x="1095" d="M141 434l125 590h129l-121 -567q-20 -90 -20 -164q0 -199 201 -199q83 0 168 51q77 46 159 148l156 731h127l-217 -1024h-127l29 137q-77 -74 -162 -119q-82 -43 -160 -43q-199 0 -267 114.5t-20 344.5zM436 1143l316 362h63l158 -362h-129l-92 215q-94 -104 -191 -215 h-125z" />
<glyph unicode="&#xfc;" horiz-adv-x="1095" d="M141 434l125 590h129l-121 -567q-20 -90 -20 -164q0 -199 201 -199q83 0 168 51q77 46 159 148l156 731h127l-217 -1024h-127l29 137q-77 -74 -162 -119q-82 -43 -160 -43q-199 0 -267 114.5t-20 344.5zM469 1233q8 35 38 60.5t68 25.5q37 0 58 -23.5t14 -62.5 q-8 -37 -38 -63.5t-68 -26.5q-36 0 -57.5 25.5t-14.5 64.5zM791 1233q8 35 37 60.5t67 25.5q37 0 60 -24t16 -62q-8 -36 -40 -63t-71 -27q-36 0 -56 25.5t-13 64.5z" />
<glyph unicode="&#xfd;" horiz-adv-x="927" d="M-49 -442l67 125q22 -19 60 -19q101 0 201 152l135 211q-28 162 -85.5 498.5t-84.5 498.5h141l127 -813l2 -25q6 6 10 17l498 821h137l-747 -1214q-46 -73 -84 -121t-86 -84q-89 -68 -195 -68q-35 0 -96 21zM440 1143l330 354h148l-345 -354h-133z" />
<glyph unicode="&#xfe;" horiz-adv-x="964" d="M-37 -453l414 1950h127l-133 -627q171 179 391 179q147 0 229 -77t96 -216q11 -111 -18 -228.5t-78 -210.5q-116 -217 -301 -299q-90 -43 -198 -43q-200 0 -279 152l-125 -580h-125zM244 268q52 -174 280 -174q143 0 260 127q112 121 158 326q18 77 12 146.5t-29 122 t-74.5 83.5t-125.5 31q-114 0 -213 -58q-90 -53 -176 -172z" />
<glyph unicode="&#xff;" horiz-adv-x="921" d="M-76 -442l70 125q19 -19 57 -19q103 0 203 152l133 211q-28 162 -85.5 498.5t-84.5 498.5h141l129 -813l2 -25q7 14 9 17l497 821h140l-750 -1214q-63 -101 -121 -163.5t-141 -92.5q-44 -17 -103 -17q-35 0 -96 21zM473 1233q8 35 38 60.5t69 25.5q36 0 57 -23.5 t14 -62.5q-8 -36 -38.5 -63t-69.5 -27q-36 0 -56.5 26t-13.5 64zM795 1233q8 35 37 60.5t67 25.5q37 0 59 -24t15 -62q-8 -36 -39 -63t-70 -27q-36 0 -56 25.5t-13 64.5z" />
<glyph unicode="&#x178;" horiz-adv-x="1105" d="M301 1434h152l186 -682q1 -7 6.5 -30t7.5 -36q63 88 250 347.5t287 400.5h147l-653 -889l-115 -545h-133l115 543q-41 147 -125 445.5t-125 445.5zM522 1579q8 35 38 60.5t69 25.5q36 0 57 -23.5t14 -62.5q-8 -37 -38 -63.5t-68 -26.5q-36 0 -57.5 25.5t-14.5 64.5z M844 1579q8 35 37 60.5t67 25.5q37 0 60 -24t16 -62q-8 -36 -40 -63t-71 -27q-36 0 -56 25.5t-13 64.5z" />
<glyph unicode="&#x2c6;" horiz-adv-x="538" d="M238 1143l315 362h63l158 -362h-129l-92 215q-94 -104 -191 -215h-124z" />
<glyph unicode="&#x2dc;" horiz-adv-x="729" d="M283 1143q18 81 59 142t102 91q43 19 80 19q78 0 152 -74q36 -36 45 -41q21 -12 43 -12q34 0 59 35q28 39 43 106h111q-39 -180 -164 -235q-43 -19 -82 -19q-67 0 -141 78q-44 47 -92 47q-79 0 -109 -137h-106z" />
<glyph unicode="&#x2000;" horiz-adv-x="957" />
<glyph unicode="&#x2001;" horiz-adv-x="1915" />
<glyph unicode="&#x2002;" horiz-adv-x="957" />
<glyph unicode="&#x2003;" horiz-adv-x="1915" />
<glyph unicode="&#x2004;" horiz-adv-x="638" />
<glyph unicode="&#x2005;" horiz-adv-x="478" />
<glyph unicode="&#x2006;" horiz-adv-x="319" />
<glyph unicode="&#x2007;" horiz-adv-x="319" />
<glyph unicode="&#x2008;" horiz-adv-x="239" />
<glyph unicode="&#x2009;" horiz-adv-x="383" />
<glyph unicode="&#x200a;" horiz-adv-x="106" />
<glyph unicode="&#x2010;" horiz-adv-x="706" d="M176 535l29 124h563l-27 -124h-565z" />
<glyph unicode="&#x2011;" horiz-adv-x="706" d="M176 535l29 124h563l-27 -124h-565z" />
<glyph unicode="&#x2012;" horiz-adv-x="706" d="M176 535l29 124h563l-27 -124h-565z" />
<glyph unicode="&#x2013;" horiz-adv-x="1165" d="M172 535l29 124h1024l-29 -124h-1024z" />
<glyph unicode="&#x2014;" horiz-adv-x="2189" d="M182 535l29 124h2007l-27 -124h-2009z" />
<glyph unicode="&#x2018;" horiz-adv-x="260" d="M188 948l263 471h110l-229 -471h-144z" />
<glyph unicode="&#x2019;" horiz-adv-x="260" d="M199 948l229 471h141l-262 -471h-108z" />
<glyph unicode="&#x201a;" horiz-adv-x="260" d="M-49 -217l229 467h142l-263 -467h-108z" />
<glyph unicode="&#x201c;" horiz-adv-x="555" d="M215 948l260 471h113l-230 -471h-143zM453 948l264 471h108l-229 -471h-143z" />
<glyph unicode="&#x201d;" horiz-adv-x="555" d="M223 948l232 471h141l-264 -471h-109zM461 948l227 471h146l-263 -471h-110z" />
<glyph unicode="&#x201e;" horiz-adv-x="555" d="M-25 -219l230 469h141l-262 -469h-109zM213 -219l227 469h146l-262 -469h-111z" />
<glyph unicode="&#x2022;" horiz-adv-x="579" d="M182 610q-23 99 41 191q61 92 164 135q50 20 102 20q77 0 129 -42.5t68 -110.5q18 -83 -17 -154.5t-94 -118.5q-90 -71 -190 -71q-79 0 -132 41.5t-71 109.5z" />
<glyph unicode="&#x2026;" horiz-adv-x="1214" d="M76 84q8 38 39.5 66t74.5 28q41 0 64 -27t14 -67q-8 -41 -40.5 -69.5t-77.5 -28.5q-40 0 -61.5 28t-12.5 70zM514 84q8 38 41 66t76 28q41 0 64 -27t14 -67q-8 -41 -41 -69.5t-78 -28.5q-40 0 -61.5 27t-14.5 71zM958 84q8 38 40 66t75 28q41 0 65 -27t15 -67 q-8 -41 -42 -69.5t-79 -28.5q-40 0 -61.5 28t-12.5 70z" />
<glyph unicode="&#x202f;" horiz-adv-x="383" />
<glyph unicode="&#x2039;" horiz-adv-x="446" d="M102 537l359 350h157l-362 -350q40 -62 112.5 -181t100.5 -163h-156z" />
<glyph unicode="&#x203a;" horiz-adv-x="446" d="M47 193l367 352q-62 103 -217 342h159l209 -342l-354 -352h-164z" />
<glyph unicode="&#x205f;" horiz-adv-x="478" />
<glyph unicode="&#x20ac;" horiz-adv-x="946" d="M117 481l24 119h129q1 15 8.5 43t8.5 37q20 96 24 111h-131l27 118h145q97 251 262 394q161 139 351 139q124 0 233 -58l-31 -145q-125 84 -235 84q-128 0 -248 -109q-121 -107 -201 -305h518l-24 -118h-537q-3 -14 -14 -67t-18 -79q-2 -9 -7 -45h535l-25 -119h-520 q-6 -133 30.5 -227.5t117.5 -134.5q52 -25 112 -25q112 0 295 109l-31 -144q-162 -84 -301 -84q-272 0 -340 289q-22 98 -16 217h-141z" />
<glyph unicode="&#x2122;" horiz-adv-x="1423" d="M315 1305l25 114h545l-25 -114h-215l-119 -562h-116l118 562h-213zM795 743l143 676h143l99 -499q109 172 319 499h137l-143 -676h-119l94 441q-46 -72 -142 -220.5t-142 -220.5h-90l-88 435l-95 -435h-116z" />
<glyph unicode="&#x25fc;" horiz-adv-x="1024" d="M0 0v1024h1024v-1024h-1024z" />
<glyph unicode="&#xfb03;" horiz-adv-x="1447" d="M211 0l192 905h-178l27 119h176l33 152q53 244 244 315q61 22 120 22q71 0 156 -49l-78 -108q-45 39 -106 39q-161 0 -211 -228l-31 -143h418l31 152q53 243 245 315q61 22 119 22q73 0 158 -49l-78 -108q-45 39 -109 39q-159 0 -209 -228l-30 -143h489l-217 -1024h-127 l193 905h-365l-190 -905h-127l190 905h-416l-192 -905h-127z" />
<glyph unicode="&#xfb04;" horiz-adv-x="1705" d="M217 0l193 905h-179l25 119h178l33 152q25 116 87.5 197.5t158.5 117.5q61 22 118 22q71 0 156 -49l-78 -108q-42 39 -106 39q-161 0 -211 -228l-31 -143h418l33 152q53 243 245 315q61 22 119 22q293 0 281 -213l-219 -1028q-22 -83 -2.5 -128.5t88.5 -45.5q53 0 147 49 l-26 -127q-78 -38 -160 -38q-238 0 -176 280l219 1034q-7 50 -57 74.5t-123 24.5q-162 0 -211 -228l-31 -143h260l-25 -119h-260l-192 -905h-127l192 905h-417l-193 -905h-127z" />
</font>
</defs>
</svg>
